<svg width="171" height="35" viewBox="0 0 171 35" fill="none" xmlns="http://www.w3.org/2000/svg">
<g clip-path="url(#clip0_54_9990)">
<mask id="mask0_54_9990" style="mask-type:luminance" maskUnits="userSpaceOnUse" x="0" y="0" width="171" height="35">
<path d="M171 0H0V35H171V0Z" fill="white"/>
</mask>
<g mask="url(#mask0_54_9990)">
<mask id="mask1_54_9990" style="mask-type:luminance" maskUnits="userSpaceOnUse" x="0" y="0" width="172" height="35">
<path d="M171.065 0H0V35H171.065V0Z" fill="white"/>
</mask>
<g mask="url(#mask1_54_9990)">
<path d="M108.72 24.4868C108.72 29.9121 106.08 34.9946 99.9248 34.9946C97.6077 34.9946 95.9783 34.2128 94.8748 33.1328L94.3697 34.9946H91.372V8.18872H95.1748V24.7412C95.1748 28.0944 95.9953 31.7281 100.063 31.7078C104.007 31.6893 104.874 27.9009 104.874 24.7412C104.874 21.5815 104.005 17.8171 100.061 17.8005C99.233 17.8097 98.4128 17.9613 97.6375 18.2485V15.192C98.688 14.7782 99.8046 14.5523 100.935 14.5247C106.326 14.5247 108.72 19.7915 108.72 24.4868ZM74.2557 34.9946H78.0603V8.18872H74.2557V34.9946ZM142.307 14.5321C141.177 14.5596 140.06 14.7856 139.01 15.1994V18.2559C139.785 17.9685 140.605 17.8169 141.433 17.8079C145.378 17.8245 146.246 21.5907 146.246 24.7486C146.246 27.9064 145.376 31.6912 141.426 31.7078C137.358 31.7281 136.538 28.0944 136.538 24.7412V8.18872H132.735V34.9965H135.733L136.236 33.1346C137.341 34.2146 138.971 34.9965 141.288 34.9965C147.439 34.9965 150.083 29.9121 150.083 24.4886C150.083 19.7915 147.689 14.5247 142.307 14.5247V14.5321ZM169.337 29.7075V22.682C169.337 17.1516 165.732 14.5413 161.577 14.5413C157.187 14.5413 154.102 17.3618 154.102 17.3618L155.917 19.9279C156.328 19.6034 158.508 17.9886 161.368 17.9886C163.808 17.9886 165.786 19.0947 165.786 22.8019V27.169C165.786 30.4338 162.431 31.8349 160.168 31.8349C158.156 31.8349 156.678 31.0384 156.678 29.2779C156.678 26.2971 160.817 25.4067 163.314 25.532V22.6581C157.839 22.3797 152.929 24.6306 152.929 29.5028C152.929 32.8912 155.587 34.989 159.569 34.989C162.552 34.989 165.13 33.8515 166.39 32.609C167.065 34.3162 168.897 34.989 170.32 34.989L171.065 32.2387C169.869 31.9806 169.343 31.4146 169.343 29.7001L169.337 29.7075ZM127.974 29.7075V22.682C127.974 17.1516 124.369 14.5413 120.214 14.5413C115.824 14.5413 112.739 17.3618 112.739 17.3618L114.556 19.9279C114.964 19.6034 117.146 17.9886 120.005 17.9886C122.445 17.9886 124.425 19.0947 124.425 22.8019V27.169C124.425 30.4338 121.07 31.8349 118.804 31.8349C116.793 31.8349 115.315 31.0384 115.315 29.2779C115.315 26.2971 119.453 25.4067 121.951 25.532V22.6581C116.476 22.3797 111.566 24.6306 111.566 29.5028C111.566 32.8912 114.224 34.989 118.206 34.989C121.189 34.989 123.767 33.8515 125.027 32.609C125.702 34.3162 127.534 34.989 128.957 34.989L129.702 32.2387C128.505 31.9806 127.98 31.4146 127.98 29.7001L127.974 29.7075ZM69.4965 29.7075V22.682C69.4965 17.1516 65.8914 14.5413 61.7363 14.5413C57.3461 14.5413 54.2612 17.3618 54.2612 17.3618L56.0842 19.9279C56.4924 19.6034 58.6752 17.9886 61.533 17.9886C63.975 17.9886 65.9529 19.0947 65.9529 22.8019V27.169C65.9529 30.4338 62.5976 31.8349 60.3325 31.8349C58.3232 31.8349 56.8447 31.0384 56.8447 29.2779C56.8447 26.2971 60.9814 25.4067 63.4811 25.532V22.6581C58.0044 22.3871 53.1016 24.6379 53.1016 29.5102C53.1016 32.8984 55.7598 34.9965 59.7417 34.9965C62.7243 34.9965 65.3006 33.859 66.5607 32.6165C67.2371 34.3234 69.0679 34.9965 70.4921 34.9965L71.2376 32.2459C70.0277 31.9806 69.506 31.4146 69.506 29.7001L69.4965 29.7075ZM82.8082 35.0037H86.6113V15.1478H82.8082V35.0037ZM82.8082 11.9604H86.6113V8.18872H82.8082V11.9604Z" fill="black"/>
<path d="M35.2902 33.0072C35.1038 33.3409 34.6545 33.4922 34.2554 33.6044L29.7089 34.8747C29.31 34.9853 28.8123 35.0756 28.4786 34.8875C28.1449 34.6997 27.979 34.2331 27.8728 33.8406C21.27 9.48462 20.3584 4.23447 17.7021 4.23447C15.0457 4.23447 14.1416 9.48462 7.53141 33.8406C7.42517 34.2331 7.25552 34.6997 6.92557 34.8875C6.59562 35.0756 6.09231 34.9853 5.6934 34.8747L1.14679 33.6044C0.747868 33.4922 0.300483 33.3409 0.11407 33.0072C-0.0723421 32.6734 0.00967955 32.185 0.11407 31.8034C6.87151 7.00335 10.6464 -0.00366211 17.7021 -0.00366211C24.7578 -0.00366211 28.5401 7.0015 35.2883 31.8034C35.3928 32.185 35.4709 32.6847 35.2902 33.0072Z" fill="#FDB913"/>
<path d="M39.3294 17.3414C39.3253 17.58 39.2698 17.815 39.1672 18.0309L38.9808 18.5415C38.8989 18.8434 38.7138 19.1079 38.4568 19.29C38.1575 19.4144 37.8236 19.4333 37.5118 19.3435C31.5873 18.0506 25.3938 18.7976 19.9571 21.4608C14.5205 24.124 10.1667 28.5437 7.61681 33.9878C7.43041 34.3934 7.13588 34.9962 6.47224 34.9962C6.20655 34.9953 5.94255 34.9541 5.68931 34.8747L1.14271 33.6044H1.13152C0.605842 33.4569 0 33.2559 0 32.5537C0.0194278 32.2497 0.103265 31.9534 0.246066 31.6837C3.47648 24.8362 9.21147 19.4542 16.2952 16.6224C23.379 13.7906 31.2849 13.7195 38.4195 16.4234C38.7737 16.5524 39.3294 16.7589 39.3294 17.3414Z" fill="url(#paint0_linear_54_9990)"/>
</g>
</g>
</g>
<defs>
<linearGradient id="paint0_linear_54_9990" x1="0.00372824" y1="24.7172" x2="39.3294" y2="24.7172" gradientUnits="userSpaceOnUse">
<stop offset="0.3" stop-color="#FDB913"/>
<stop offset="0.75" stop-color="#F7941F"/>
</linearGradient>
<clipPath id="clip0_54_9990">
<rect width="171" height="35" fill="white"/>
</clipPath>
</defs>
</svg>
