<svg width="160" height="37" viewBox="0 0 160 37" fill="none" xmlns="http://www.w3.org/2000/svg">
<g clip-path="url(#clip0_49_8231)">
<path d="M111.619 17.8633C110.41 14.9794 108.128 12.6673 105.247 11.4059C103.042 10.4365 100.594 10.1472 98.2216 10.5756C95.9094 11.0167 93.7561 12.0565 91.9803 13.5894C90.9428 14.5139 90.0633 15.5992 89.3766 16.8028L89.3618 16.8321C89.1524 17.2021 88.9591 17.5839 88.7926 17.9725L80.4375 34.7383H80.4442L80.4375 34.7502C81.2214 34.7502 90.1536 34.7609 92.6783 34.7676C95.6606 34.8665 98.646 34.8035 101.621 34.5786C104.498 34.2882 107.185 33.0187 109.225 30.986C110.738 29.4033 111.765 27.4267 112.187 25.2869C112.766 22.8179 112.568 20.2327 111.622 17.878L111.619 17.8633ZM105.99 24.6495C105.696 25.5116 105.205 26.2946 104.556 26.9375C103.906 27.5803 103.116 28.0656 102.245 28.3553C101.058 28.7384 99.7859 28.7837 98.5737 28.486C97.3615 28.1882 96.2579 27.5593 95.3882 26.6707C94.771 25.9499 94.3345 25.0947 94.1142 24.1748C93.894 23.2548 93.8965 22.2964 94.1212 21.3776C94.4155 20.2057 95.0378 19.1402 95.9165 18.3036C96.7951 17.4672 97.8943 16.8939 99.0873 16.6498C100.361 16.3761 101.69 16.5209 102.874 17.0622C104.057 17.6035 105.031 18.512 105.648 19.6504C106.036 20.4197 106.267 21.2578 106.327 22.1161C106.386 22.9745 106.274 23.836 105.996 24.6508L105.99 24.6495Z" fill="#FF2640"/>
<path d="M84.1121 22.836C83.9264 20.5731 83.1895 18.3885 81.9646 16.4702C80.5776 14.4828 78.6105 12.9635 76.3274 12.1165C76.0347 12.0087 75.9851 11.9595 75.4777 11.7852L72.7464 17.093C73.671 17.4902 74.563 17.9577 75.4147 18.4914C76.2047 19.0349 76.8414 19.7695 77.2643 20.6257C77.6872 21.4817 77.8821 22.4309 77.8306 23.3828C77.7605 24.32 77.4604 25.2258 76.9562 26.0215C76.4521 26.8173 75.7593 27.4787 74.9381 27.9481C73.9424 28.4848 72.8168 28.7394 71.6846 28.6841C67.4836 28.6601 63.2852 28.6773 59.0855 28.696C58.4459 28.7238 57.8054 28.6701 57.1796 28.5363C56.0108 28.2344 54.9681 27.574 54.2006 26.6494C53.433 25.7248 52.98 24.5834 52.9061 23.3881C52.8551 20.9771 52.898 18.5646 52.8699 16.1549C50.8417 16.1549 48.8124 16.1549 46.7856 16.1549C46.7078 18.1189 46.7413 20.0843 46.7468 22.0496C46.7054 23.1855 46.7755 24.3228 46.9562 25.4453C47.5465 28.243 49.133 30.7365 51.4256 32.4696C53.4519 34.0059 55.9374 34.8278 58.4882 34.8049C61.7873 34.7875 65.0879 34.8221 68.3896 34.8049C70.611 34.8049 75.8563 34.7902 78.0695 34.7902L84.1121 22.836ZM46.7334 7.58705H52.8738V13.1756H46.7334V7.58705ZM54.6858 7.58705H60.8264V13.1756H54.6885L54.6858 7.58705ZM130.599 1.13489H136.739V6.72349H130.599V1.13489ZM138.552 1.13489H144.692V6.72349H138.552V1.13489Z" fill="#333333"/>
<path d="M115.476 5.91565L121.605 1.38091C121.605 1.38091 121.591 16.7415 121.615 23.7526C121.584 24.5095 121.747 25.262 122.088 25.9398C122.429 26.6176 122.938 27.1986 123.567 27.6286C124.591 28.1026 125.73 28.278 126.851 28.1343C125.779 25.8951 125.389 23.394 125.731 20.9383C126.032 18.1875 127.294 15.6277 129.298 13.7024C130.823 12.3339 132.647 11.3346 134.627 10.7831C137.77 9.94443 141.118 10.3157 143.997 11.8223C145.87 12.8344 147.44 14.3196 148.548 16.1274C149.656 17.9351 150.261 20.0011 150.305 22.1159C150.39 25.0778 149.426 27.9758 147.581 30.3072C145.754 32.4362 143.242 33.8744 140.467 34.3789C138.048 34.7217 135.601 34.8259 133.161 34.6903C129.799 34.6397 126.363 34.9404 123.08 34.0436C120.926 33.4465 119.021 32.1833 117.642 30.438C116.264 28.6928 115.483 26.5565 115.415 24.3408C115.408 19.585 115.406 14.829 115.408 10.0725C115.423 7.6215 115.469 5.91698 115.469 5.91698L115.476 5.91565ZM137.433 16.5605C136.212 16.693 135.056 17.1726 134.103 17.9415C133.151 18.7104 132.443 19.7359 132.064 20.8944C131.769 21.791 131.69 22.7437 131.834 23.676C131.978 24.6084 132.34 25.4941 132.893 26.2622C133.732 27.2808 134.863 28.0234 136.137 28.392C137.411 28.7606 138.767 28.7381 140.028 28.3272C140.816 28.0841 141.542 27.6768 142.157 27.1326C142.773 26.5885 143.265 25.9202 143.599 25.1723C144.08 24.0387 144.25 22.7992 144.09 21.5797C143.948 20.5865 143.554 19.6452 142.947 18.8424C142.339 18.0396 141.538 17.4014 140.616 16.9863C139.611 16.5699 138.514 16.419 137.433 16.5486V16.5605ZM153.459 5.75597L159.985 1.14539C159.985 1.14539 159.991 24.3287 159.997 34.7035C157.828 34.7035 155.659 34.7475 153.494 34.6955C153.481 25.7246 153.459 5.74533 153.459 5.74533V5.75597Z" fill="#333333"/>
<path d="M27.001 8.22448C27.2693 7.69223 27.868 6.54259 27.868 6.54259C27.868 6.54259 28.5847 6.55856 28.9418 6.54259C30.7658 6.55988 32.5898 6.53062 34.4126 6.5732C31.3496 12.9136 25.0762 25.5545 25.0762 25.5545C25.0762 25.5545 29.6142 25.5385 31.8851 25.5545C31.9631 21.0596 31.8543 16.5767 31.9603 12.082C33.9535 12.082 35.9453 12.0713 37.9384 12.082C37.9321 16.567 37.9321 21.0504 37.9384 25.5319C39.2712 25.5771 40.6081 25.5145 41.9409 25.5731C41.9289 27.5331 41.9248 29.4944 41.9476 31.4557C40.6148 31.501 39.282 31.469 37.9492 31.4836C37.9036 33.1722 37.9492 34.8621 37.9211 36.552C35.9265 36.5972 33.932 36.5799 31.9375 36.564C31.8677 34.8701 31.9375 33.1735 31.9012 31.4797C23.1193 31.4385 14.3346 31.4916 5.55403 31.4504C8.44601 25.7111 11.3541 19.9805 14.2783 14.2588C14.6009 13.6736 14.8908 13.0713 15.1466 12.4545C15.338 11.7592 15.337 11.0258 15.144 10.331C14.9512 9.63616 14.5732 9.00557 14.0502 8.50524C13.3083 7.80452 12.3286 7.40455 11.3041 7.38411C10.2797 7.36366 9.2846 7.72424 8.5149 8.3948C7.73202 9.13457 7.26325 10.1425 7.20415 11.2131C7.14503 12.2837 7.50005 13.3363 8.1968 14.1564C8.73908 14.6577 9.3511 15.0793 10.0141 15.4085C9.1511 17.1782 8.30015 18.9573 7.32035 20.6685C5.94518 20.1047 4.70904 19.2532 3.69643 18.1722C2.16706 16.3281 1.30889 14.027 1.26035 11.6402C1.2348 9.22788 2.04975 6.88073 3.56759 4.99508C4.69438 3.55958 6.26027 2.52497 8.03038 2.04643C9.40416 1.60742 10.8564 1.4631 12.2908 1.62306C13.7251 1.78302 15.1088 2.24361 16.3498 2.97424C17.5908 3.70487 18.6609 4.68885 19.4891 5.86084C20.3171 7.03284 20.8844 8.36605 21.1529 9.772C21.532 11.7508 21.2395 13.7983 20.3208 15.5947C18.666 18.928 15.3252 25.5479 15.3252 25.5479H18.2914" fill="#333333"/>
</g>
<defs>
<clipPath id="clip0_49_8231">
<rect width="160" height="36.6013" fill="white"/>
</clipPath>
</defs>
</svg>
