<svg width="160" height="48" viewBox="0 0 160 48" fill="none" xmlns="http://www.w3.org/2000/svg">
<g clip-path="url(#clip0_55_10043)">
<path d="M45.9521 13.7152L35.3665 13.2224L34.5921 16.32C35.7825 16.5824 37.2737 15.9424 41.3057 16.2496C44.1921 16.512 44.8641 17.7984 44.8641 23.2192C44.8962 25.0191 44.8107 26.8192 44.6081 28.608C42.9172 29.1169 41.1577 29.3609 39.3921 29.3312C37.4721 29.3312 36.6593 28.9216 36.6593 28.096L36.8129 22.8288L32.7361 22.5216L32.2689 26.1312C31.7505 30.2656 33.6129 31.6544 38.8801 31.6544C41.4286 31.6926 43.9683 31.3453 46.4129 30.624C48.5825 29.8496 49.7217 25.952 49.7217 22.0288C49.7217 16.5568 48.2241 14.2336 45.9521 13.7088" fill="#072441"/>
<path d="M25.504 26.2848L16.16 25.5104C15.7763 25.5096 15.4063 25.3675 15.1207 25.1114C14.835 24.8552 14.6537 24.5029 14.6112 24.1216C14.6112 17.2032 15.6928 15.392 18.6368 15.392H22.4768L23.04 20.864L27.3216 20.4032V15.5456C27.3216 14.0544 26.24 12.6592 24.7616 12.8128L14.816 13.8944C11.52 14.2592 9.6 18.1312 9.6 24.0704C9.6 26.1824 11.36 27.7824 13.7856 27.8336L23.1296 28.096C23.1395 29.686 23.0197 31.2742 22.7712 32.8448C19.805 33.7129 16.7215 34.1124 13.632 34.0288C7.2768 34.0288 4.5952 32.48 4.5952 28.8192C4.5952 26.3936 5.1136 21.024 5.472 16.7872H1.632C0.8768 20.3008 0 24.96 0 28.2496C0 34.0096 3.9232 36.3584 13.632 36.3584C17.1246 36.4006 20.6091 36.0115 24.0064 35.2C26.6432 34.4768 27.9296 32.512 27.9296 29.1072C27.9611 28.7632 27.9226 28.4163 27.8166 28.0876C27.7105 27.7589 27.539 27.455 27.3123 27.1943C27.0857 26.9336 26.8087 26.7214 26.4979 26.5706C26.1871 26.4198 25.849 26.3335 25.504 26.3168" fill="#072441"/>
<path d="M125.715 27.7824V11.52L121.331 11.7824L121.971 30.3424C125.017 30.2912 125.683 29.7024 125.683 27.7824" fill="#072441"/>
<path d="M153.6 5.32483H148.436V9.45283H153.6V5.32483Z" fill="#072441"/>
<path d="M155.609 14.7713L146.368 13.4401C145.955 13.3596 145.529 13.3645 145.118 13.4546C144.707 13.5446 144.318 13.7179 143.977 13.9637C143.635 14.2095 143.347 14.5227 143.131 14.8839C142.915 15.2451 142.775 15.6467 142.72 16.0641L142.003 22.5217C141.741 24.8449 143.283 26.8545 146.131 26.8545H155.289C155.246 28.1691 155.118 29.4796 154.905 30.7777C151.719 31.3331 148.488 31.5924 145.254 31.5521C138.073 31.5521 136.166 29.7473 136.166 26.0289V11.0081L131.776 11.2641L131.84 27.4241C131.84 29.9841 131.789 31.9681 131.481 33.1009C130.035 33.6705 127.507 34.0353 124.563 34.0353C122.713 34.0756 120.863 33.9362 119.04 33.6193L118.777 35.7889C120.708 36.2284 122.686 36.4198 124.665 36.3585C127.763 36.3585 130.707 36.0449 132.409 35.4753C133.311 35.2474 134.121 34.7475 134.729 34.0433C135.337 33.3391 135.714 32.4648 135.808 31.5393C137.254 33.1393 140.102 33.8753 145.165 33.8753C148.776 33.8939 152.383 33.635 155.955 33.1009C158.893 32.5889 160.032 30.3681 160.032 24.8961C160.032 18.5921 158.534 15.1873 155.641 14.7713M146.835 23.9617L147.296 16.0641H150.496C154.419 16.0641 155.251 17.1009 155.296 24.7617L147.757 24.5313C147.449 24.5313 146.829 24.3777 146.829 23.9617" fill="#072441"/>
<path d="M113.536 26.2848L104.186 25.5104C103.802 25.5096 103.432 25.3675 103.147 25.1114C102.861 24.8552 102.679 24.5029 102.637 24.1216C102.637 17.2032 103.725 15.392 106.669 15.392H110.509L111.072 20.864L115.36 20.4032V15.5456C115.36 14.0544 114.279 12.6592 112.832 12.8128L102.848 13.8944C99.5394 14.2592 97.6322 18.1312 97.6322 24.0704C97.6322 26.1824 99.3858 27.7824 101.811 27.8336L111.002 28.096C111.012 29.686 110.892 31.2742 110.643 32.8448C108.525 33.568 105.683 34.0288 101.683 34.0288C95.3346 34.0288 92.6466 32.48 92.6466 28.8192C92.6466 26.3936 93.165 21.024 93.5298 16.7872H89.6898C88.9154 20.3008 88.0322 24.9472 88.0322 28.2496C88.0322 34.0096 91.9618 36.3584 101.664 36.3584C105.157 36.4 108.641 36.011 112.039 35.2C114.669 34.4768 115.962 32.512 115.962 29.1072C115.993 28.7632 115.955 28.4163 115.849 28.0876C115.743 27.7589 115.571 27.455 115.345 27.1943C115.118 26.9336 114.841 26.7214 114.53 26.5706C114.219 26.4198 113.881 26.3335 113.536 26.3168" fill="#072441"/>
<path d="M78.1692 14.7712C78.4252 19.0592 78.5788 23.552 78.5788 25.824C76.5569 26.0995 74.5201 26.2512 72.4796 26.2784C72.3516 17.8368 70.8604 15.168 68.102 14.7584L58.8796 13.44C58.4642 13.3516 58.0348 13.3509 57.6191 13.4379C57.2033 13.5249 56.8103 13.6977 56.4651 13.9453C56.12 14.1929 55.8303 14.5098 55.6146 14.8757C55.3989 15.2416 55.2619 15.6485 55.2124 16.0704L54.47 24.0704C54.2652 26.3936 55.75 28.4032 58.598 28.4032H67.7756C67.7244 30.4064 67.5516 32 67.1356 32.9472C65.5868 33.5168 63.0076 33.7728 60.5308 33.7728C58.3367 33.8156 56.1427 33.6786 53.9708 33.3632L53.7148 35.5264C55.9931 35.9697 58.3132 36.1607 60.6332 36.096C63.1932 36.096 66.2076 35.7888 67.91 35.168C70.7708 34.1184 72.2684 31.9168 72.4796 28.3776C75.0844 28.3328 77.4524 28.2496 79.5196 28.1472C81.5868 28.0448 83.3596 26.6496 83.3596 23.808C83.3596 22.528 83.1548 18.8544 82.7196 14.5152L78.1692 14.7712ZM59.3212 25.5104L59.7884 16.064H62.9884C66.9564 16.064 67.7436 16.8448 67.7884 26.304C64.7868 26.304 63.0332 26.24 60.2492 26.0992C59.7372 26.0992 59.3212 25.8944 59.3212 25.4592" fill="#072441"/>
<path d="M84.3139 7.54565H70.5283V10.3873H84.3139V7.54565Z" fill="#072441"/>
</g>
<defs>
<clipPath id="clip0_55_10043">
<rect width="160" height="48" fill="white"/>
</clipPath>
</defs>
</svg>
