<svg width="170" height="19" viewBox="0 0 170 19" fill="none" xmlns="http://www.w3.org/2000/svg">
<g clip-path="url(#clip0_55_10070)">
<path d="M169.982 7.62382C169.118 7.62382 168.253 7.62382 167.406 7.60629C167.194 7.60629 167.141 7.6764 167.141 7.86918C167.159 9.74446 167.176 13.5827 167.176 13.6352C167.141 15.0198 167.953 15.2125 169.33 15.2301C169.56 15.2301 169.735 15.4053 169.735 15.6332V17.4734C169.735 17.7538 169.523 17.9816 169.241 18.0167C168.253 18.1394 167.318 18.1218 166.435 18.0167C165.111 17.7538 164.176 16.7548 163.929 15.3527C163.823 14.7394 163.752 14.1435 163.752 13.5125C163.752 11.6723 163.752 9.81455 163.752 7.97434C163.752 7.69392 163.682 7.58877 163.4 7.62382C163.029 7.62382 162.694 7.62382 162.34 7.62382C162.058 7.62382 162.093 7.57123 162.093 7.08051C162.093 6.51968 162.076 6.02896 162.076 5.52071C162.076 5.22276 162.093 5.13513 162.305 5.15266C162.694 5.15266 162.976 5.15266 163.452 5.15266C163.682 5.15266 163.771 5.06503 163.752 4.83719C163.752 4.45162 163.752 3.68048 163.752 3.20728C163.752 2.82171 163.894 2.69903 164.265 2.55882L166.665 1.62995C166.912 1.54232 167.159 1.71758 167.159 1.96295C167.159 2.85676 167.159 3.89079 167.141 4.74956C167.141 5.06503 167.248 5.17019 167.565 5.15266C168.376 5.13513 169.189 5.13513 170 5.13513V7.62382H169.982Z" fill="#FF690F"/>
<path d="M98.4168 7.51857C98.5933 7.22063 98.7697 6.94022 98.858 6.83506C99.9875 5.41545 101.999 4.85462 103.694 5.50308C104.435 5.7835 104.982 6.30928 105.3 7.02785C105.459 7.39589 105.547 7.30826 105.741 7.06289C106.923 5.52062 108.494 4.95979 110.383 5.39793C111.618 5.67834 112.359 6.55465 112.8 7.71135C113.048 8.37734 113.171 9.07838 113.171 9.77941C113.189 12.4258 113.189 15.0723 113.206 17.7011C113.206 17.9465 113.136 17.9991 112.906 17.9991C112.059 17.9991 111.212 17.9815 110.365 17.9991C110.03 17.9991 109.924 17.9115 109.924 17.5609C109.941 15.4052 109.924 13.2495 109.941 11.1114C109.941 10.4103 109.924 9.72684 109.659 9.06086C109.218 7.90414 107.947 7.53609 106.959 8.28971C106.429 8.69281 106.147 9.23611 106.112 9.86704C106.076 10.4279 106.076 11.0062 106.076 11.5671C106.076 13.5825 106.059 15.598 106.076 17.6135C106.076 17.9115 105.988 17.9991 105.688 17.9991C104.859 17.9815 104.011 17.9815 103.182 17.9991C102.864 17.9991 102.758 17.8939 102.776 17.5784C102.794 15.3001 102.776 13.0217 102.776 10.7433C102.776 10.2351 102.723 9.74436 102.617 9.25364C102.352 8.04435 101.046 7.53609 100.005 8.2196C99.2286 8.72786 98.9109 9.48147 98.9109 10.3928C98.9109 12.7764 98.8932 15.1774 98.9109 17.5609C98.9109 17.8764 98.8403 17.9815 98.505 17.9815C97.6402 17.9465 96.7578 17.9641 95.8753 17.9815C95.6105 17.9815 95.5576 17.8939 95.5576 17.6661C95.5576 13.7403 95.5576 9.81447 95.5576 5.88866C95.5576 5.62577 95.6282 5.55567 95.893 5.55567C96.6166 5.57319 97.3401 5.57319 98.0638 5.55567C98.3108 5.55567 98.3991 5.60825 98.4168 5.87113C98.4168 6.29176 98.3814 7.08042 98.4168 7.51857Z" fill="#FF690F"/>
<path d="M142.062 10.7609C142.715 9.35885 143.615 8.11451 144.444 6.83511C144.745 6.36191 145.045 5.90624 145.362 5.45056C145.451 5.32788 145.539 5.2052 145.715 5.2052C146.95 5.2052 148.185 5.2052 149.509 5.2052C149.192 5.6083 148.91 5.95882 148.644 6.30933C147.621 7.5712 146.598 8.8506 145.574 10.0949C145.344 10.3578 145.327 10.5681 145.521 10.8486C146.95 13.0568 148.345 15.2827 149.756 17.5084C149.968 17.8414 149.828 17.9816 149.616 17.9991C148.539 17.9991 147.462 17.9991 146.386 18.0167C146.068 18.0167 145.873 17.9115 145.733 17.631C144.85 16.0362 143.968 14.4414 143.085 12.829C142.927 12.531 142.873 12.6012 142.68 12.8114C141.992 13.4775 141.885 14.2661 141.938 15.1599C141.992 16.0012 141.938 16.8425 141.955 17.6836C141.955 17.9991 141.78 17.9816 141.374 17.9816C140.544 17.9816 139.785 17.9991 138.974 17.9991C138.461 17.9991 138.532 17.8064 138.532 17.5434C138.532 13.6527 138.532 9.76194 138.532 5.87119C138.532 4.03096 138.532 2.26084 138.532 0.38557C138.532 0.17526 138.708 0 138.92 0H141.585C141.797 0 141.974 0.17526 141.974 0.38557C141.974 3.7155 141.974 6.95779 141.955 10.2702C141.955 10.4279 141.955 10.5857 141.955 10.7434C141.903 10.8661 142.027 10.8485 142.062 10.7609Z" fill="#FF690F"/>
<path d="M81.8446 6.11662C81.8446 6.08156 81.8446 5.62589 81.8269 5.32795C81.8269 5.18774 81.9328 5.08258 82.074 5.08258C82.7093 5.08258 84.033 5.06506 84.5801 5.06506C84.7213 5.06506 84.8272 5.17021 84.8272 5.31042C84.8095 8.62282 84.8272 12.4961 84.8272 15.7909C84.8272 16.457 84.8272 17.1229 84.8272 17.7889C84.8272 18.0692 84.7389 18.0518 84.3154 18.0518C83.5036 18.0518 82.9388 18.0518 82.2681 18.0518C81.9328 18.0518 81.8622 18.0168 81.8798 17.7889C81.8975 17.5435 81.8798 17.2981 81.8798 16.9652C79.9209 18.1744 77.9089 18.3848 75.8087 17.6487C74.3968 17.1405 73.3378 16.1765 72.526 14.9496C71.0612 12.7063 71.3436 9.41149 73.0907 7.37848C75.3498 4.74959 79.2325 4.43413 81.8446 6.11662ZM74.5203 11.5847C74.5203 13.6002 76.1616 15.2301 78.1913 15.2301C80.2209 15.2301 81.8622 13.6002 81.8622 11.5672C81.8622 9.56922 80.2209 7.93931 78.2089 7.93931C76.1793 7.92179 74.5203 9.56922 74.5203 11.5847Z" fill="#3E3D3C"/>
<path d="M58.2126 6.09901C58.2126 5.90622 58.1949 5.67838 58.2126 5.52066C58.2126 5.36292 58.2655 5.27529 58.5303 5.27529C58.795 5.27529 59.148 5.27529 59.3598 5.25776C59.9245 5.25776 60.2952 5.27529 60.86 5.25776C61.1247 5.24024 61.1952 5.32787 61.1952 5.59075C61.1776 7.51861 61.1952 9.44646 61.1952 11.3568C61.1952 13.4775 61.1952 15.5805 61.1952 17.7012C61.1952 18.0166 61.107 18.0692 60.807 18.0692C60.048 18.0517 59.2892 18.0517 58.5303 18.0692C58.3185 18.0692 58.2303 18.0166 58.248 17.7888C58.2655 17.5434 58.248 17.2981 58.248 16.9651C56.3772 18.1218 54.4358 18.3671 52.4062 17.7362C50.9589 17.2806 49.8647 16.3517 49.0177 15.1423C47.4292 12.8816 47.6233 9.58667 49.3883 7.46604C51.6296 4.76704 55.5477 4.399 58.2126 6.09901ZM58.2303 11.6021C58.2303 9.58667 56.5889 7.93922 54.5593 7.93922C52.5473 7.93922 50.8883 9.56914 50.8883 11.5496C50.8708 13.5651 52.5121 15.2125 54.5416 15.2125C56.5713 15.2301 58.2303 13.6177 58.2303 11.6021Z" fill="#3E3D3C"/>
<path d="M125.331 16.9475C124.431 17.4558 123.567 17.8414 122.597 17.9815C118.36 18.595 114.813 15.2826 115.007 11.2691C115.254 6.32682 120.567 3.55773 124.944 5.95878C125.119 6.06394 125.296 6.18662 125.296 6.18662C125.296 6.09899 125.296 5.66084 125.296 5.45053C125.296 5.34537 125.385 5.24022 125.508 5.24022C126.02 5.24022 127.379 5.25774 127.944 5.24022C128.156 5.24022 128.226 5.29279 128.226 5.52063C128.226 9.49902 128.226 13.7053 128.226 17.7012C128.226 17.8589 128.102 17.9815 127.944 17.9815C127.379 17.9815 126.161 17.9991 125.561 17.9815C125.438 17.9815 125.331 17.8764 125.331 17.7537V16.9475ZM117.936 11.5846C117.936 13.6001 119.578 15.23 121.59 15.2475C123.637 15.2475 125.296 13.6001 125.296 11.5846C125.296 9.58665 123.62 7.93921 121.608 7.93921C119.595 7.92168 117.936 9.56912 117.936 11.5846Z" fill="#FF690F"/>
<path d="M39.4348 18.1217C37.9875 18.1919 36.611 17.9465 35.3403 17.263C35.1637 17.1754 35.0931 17.1052 35.1461 16.8949C35.3403 16.1588 35.5344 15.4052 35.7109 14.6691C35.7815 14.3887 35.8167 14.3186 36.0992 14.4764C37.5111 15.2299 39.0288 15.4578 40.6172 15.2125C41.5173 15.0723 42.2056 14.6341 42.4703 13.7052C42.7351 12.7413 42.3115 12.0052 41.6408 11.3918C41.1115 10.9186 40.476 10.6382 39.8406 10.3402C38.8347 9.86703 37.8288 9.3763 36.9993 8.62269C34.6167 6.51957 34.8285 2.99687 37.4582 1.19169C38.8876 0.210239 40.4937 0.0174539 42.1703 0.0875577C43.1587 0.140136 44.1117 0.367972 45.0471 0.736018C45.3118 0.841173 45.4001 0.946329 45.2941 1.22675C45.1 1.87521 44.9235 2.52367 44.7647 3.18965C44.6941 3.52264 44.5882 3.61027 44.2528 3.47007C43.4764 3.17212 42.6821 2.92676 41.835 2.87418C41.2526 2.83913 40.6878 2.8917 40.1583 3.0845C39.4348 3.34738 38.923 3.8381 38.817 4.62677C38.7112 5.36286 39.0642 5.92369 39.6289 6.34431C40.176 6.76494 40.7584 7.09793 41.3938 7.37834C42.5234 7.86907 43.5999 8.44743 44.5176 9.28867C46.9002 11.4619 46.3884 15.633 43.547 17.1754C42.2586 17.8939 40.8819 18.1919 39.4348 18.1217Z" fill="#3E3D3C"/>
<path d="M89.7152 7.53615C90.0506 6.99284 90.3506 6.46706 90.8095 6.06397C91.5508 5.39798 92.3979 5.065 93.4216 5.18768C93.6509 5.22272 93.7392 5.29283 93.7392 5.5382C93.7216 6.39697 93.7216 7.25573 93.7392 8.09698C93.7392 8.32481 93.6862 8.41244 93.4391 8.37739C93.1921 8.34235 92.9273 8.35987 92.6802 8.37739C91.4802 8.41244 90.6153 9.09596 90.3153 10.2527C90.1918 10.7259 90.1565 11.1991 90.1565 11.6723C90.1565 13.6527 90.1389 15.6506 90.1565 17.631C90.1565 17.929 90.0859 18.0167 89.7858 18.0167C88.8682 17.9991 87.9681 17.9991 87.0503 18.0167C86.8032 18.0167 86.6973 17.9641 86.6973 17.6836C86.7149 13.7053 86.6973 9.72689 86.6973 5.74851C86.6973 5.50314 86.7679 5.43303 87.0149 5.43303C87.7739 5.45057 88.5328 5.45057 89.2917 5.43303C89.5211 5.43303 89.5917 5.50314 89.6094 5.73098C89.627 6.34438 89.68 6.94027 89.7152 7.53615Z" fill="#3E3D3C"/>
<path d="M133.008 7.74649C133.132 7.4836 133.238 7.30834 133.309 7.16814C133.944 5.95885 135.25 5.10008 136.539 5.20524C136.891 5.22276 137.015 5.34544 137.015 5.71348C136.979 6.48463 136.998 7.25577 137.015 8.00938C137.015 8.2898 136.961 8.37743 136.662 8.37743C136.539 8.37743 136.415 8.37743 136.273 8.37743C134.562 8.37743 133.556 9.3063 133.432 11.0063C133.344 12.4084 133.397 13.8279 133.379 15.2301C133.379 16.0538 133.379 16.86 133.379 17.6837C133.379 17.9116 133.326 18.0342 133.062 18.0342C132.127 18.0166 131.19 18.0166 130.255 18.0342C130.025 18.0342 129.99 17.9466 129.99 17.7538C129.99 13.7754 129.99 9.7795 129.99 5.80111C129.99 5.59081 130.044 5.5207 130.255 5.5207C131.032 5.53822 131.808 5.53822 132.567 5.5207C132.744 5.5207 132.796 5.57328 132.815 5.74854C132.903 6.34442 132.955 7.04546 133.008 7.74649Z" fill="#FF690F"/>
<path d="M68.0795 13.197C68.0795 14.7218 68.0795 16.2466 68.0795 17.7538C68.0795 18.0342 68.0265 18.1218 67.7265 18.1218C66.8617 18.1043 65.9793 18.1043 65.0969 18.1218C64.8144 18.1218 64.7438 18.0518 64.7438 17.7712C64.7615 14.7568 64.7438 11.7424 64.7615 8.71038C64.7615 8.35987 64.6733 8.28976 64.338 8.30729C64.038 8.32481 63.7556 8.30729 63.4202 8.32481C63.2084 8.34235 63.1025 8.28976 63.1025 8.0444C63.1202 7.41347 63.1202 6.78254 63.1025 6.1516C63.1025 5.95882 63.1555 5.88871 63.3673 5.88871C63.7379 5.88871 63.9497 5.88871 64.3203 5.90623C64.6557 5.94129 64.7615 5.83614 64.7438 5.50314C64.7086 4.52169 64.8321 3.57528 65.2733 2.68147C65.9616 1.27939 67.0912 0.490725 68.6443 0.297939C69.4738 0.192784 71.0445 0.332991 72.1741 0.841244C72.3329 0.911347 72.4564 0.946399 72.4387 1.17424C72.2799 1.78764 72.1035 2.45362 71.9269 3.11962C71.874 3.2423 71.7681 3.29488 71.6269 3.2423C71.3622 3.15467 70.9916 3.01445 70.8503 2.97941C70.4268 2.87425 70.0032 2.8392 69.562 2.89178C68.8737 2.96188 68.4502 3.36497 68.256 3.99591C68.0971 4.52169 68.0619 5.08252 68.0442 5.64335C68.0265 5.87119 68.1148 5.92377 68.3266 5.92377C68.962 5.90623 69.5973 5.92377 70.2327 5.92377C70.4621 5.92377 70.5504 5.97634 70.5327 6.22171C70.515 6.81758 70.515 7.431 70.5327 8.02687C70.5504 8.30729 70.4268 8.35987 70.1798 8.35987C69.5797 8.34235 68.9972 8.35987 68.3971 8.34235C68.1325 8.32481 68.0619 8.42997 68.0619 8.69286C68.0795 10.1475 68.0795 11.6722 68.0795 13.197Z" fill="#3E3D3C"/>
<path d="M153.11 12.3908C152.828 12.3908 152.74 12.4434 152.775 12.7414C152.97 14.1258 153.87 15.0723 155.175 15.2475C156.464 15.4228 157.929 15.1073 158.458 13.8805C158.547 13.6527 158.67 13.6176 158.882 13.6176C159.676 13.6351 160.523 13.6176 161.318 13.6176C161.582 13.6351 161.67 13.7403 161.565 14.1609C161.017 16.3166 159.535 17.596 157.382 17.9815C153.781 18.5775 150.851 17.3156 149.863 13.9155C149.422 12.3908 149.387 10.831 149.74 9.27116C150.322 6.71238 152.511 5.02989 155.158 4.85463C157.752 4.66185 160.258 5.90618 161.141 8.4825C161.6 9.69179 161.582 10.866 161.617 12.1279C161.617 12.4258 161.265 12.4434 161.034 12.4434C159.659 12.4609 154.469 12.3908 153.11 12.3908ZM155.529 10.1475C156.305 10.1475 157.081 10.1299 157.858 10.1475C158.193 10.1475 158.3 10.0774 158.265 9.79694C158.158 9.09591 157.858 8.46498 157.275 7.95672C156.34 7.13301 154.893 7.11547 153.905 7.90415C153.252 8.42992 152.952 9.0959 152.828 9.83199C152.793 10.0774 152.846 10.165 153.163 10.165C153.958 10.1299 154.734 10.1475 155.529 10.1475Z" fill="#FF690F"/>
<path d="M19.9323 13.46C20.1087 13.6177 20.2499 13.7404 20.391 13.8805C20.3558 13.9331 20.3381 13.9683 20.3029 14.0033C19.1557 15.2126 17.9909 16.4044 16.8437 17.6136C16.4025 18.0868 15.8553 18.2095 15.2377 18.0342C14.9906 17.9642 14.7965 17.824 14.62 17.6487C13.4552 16.4218 12.2726 15.2126 11.1078 13.9857C11.0902 13.9683 11.0725 13.9507 11.0549 13.8981C11.1784 13.7579 11.3196 13.6352 11.4608 13.4775C11.2843 13.2322 11.0725 13.0394 10.8608 12.829C10.7725 12.7414 10.6843 12.829 10.596 12.8816C10.2078 13.0744 9.83713 13.2848 9.44886 13.4424C8.47817 13.8455 7.4369 13.9857 6.39562 13.8981C3.06 13.6177 0.606817 11.129 0.112652 8.18466C-0.240324 6.13414 0.236193 4.25886 1.54221 2.62894C2.58348 1.3145 3.96008 0.490782 5.61907 0.175316C9.48415 -0.5783 13.0315 1.98048 13.7552 5.60835C14.1258 7.44858 13.7904 9.16612 12.7845 10.761C12.7315 10.8311 12.6963 10.9012 12.6432 10.9713C12.7492 11.1641 13.1021 11.5496 13.3492 11.7074C13.4552 11.6198 13.5433 11.5322 13.6845 11.427C14.0199 11.7775 14.3553 12.128 14.6905 12.4785C15.0258 12.829 15.3612 13.1796 15.7141 13.5476C16.4025 12.829 17.0731 12.128 17.7615 11.427C17.8673 11.5146 17.9732 11.6022 18.0967 11.7074C18.3262 11.4796 18.5556 11.2517 18.7851 11.0063C18.7145 10.9012 18.6615 10.8136 18.6085 10.7259C18.0438 9.8321 17.6732 8.86818 17.5673 7.83415C17.3378 5.52072 18.0261 3.50525 19.7557 1.89285C20.7441 0.963983 21.9089 0.3681 23.2679 0.140264C23.9914 0.0175819 24.7151 0.0175823 25.4387 0.122738C27.6624 0.438205 29.3214 1.59492 30.4685 3.50524C31.2274 4.74959 31.4922 6.13414 31.3863 7.58878C31.1745 10.428 29.1272 12.8992 26.374 13.6878C25.4916 13.9331 24.5915 13.9857 23.6737 13.8981C22.6501 13.7929 21.6971 13.46 20.8324 12.9342C20.6029 12.794 20.6029 12.794 20.4087 12.9868C20.2675 13.1094 20.1087 13.2672 19.9323 13.46ZM19.7028 6.95785C19.7205 9.55169 21.75 11.7249 24.4503 11.7249C27.2741 11.7249 29.2155 9.41148 29.2331 6.97538C29.2331 4.41659 27.1329 2.20833 24.468 2.20833C21.9089 2.20833 19.7381 4.27639 19.7028 6.95785ZM6.96038 2.20833C4.33072 2.19079 2.19521 4.32896 2.17756 6.94032C2.15991 9.42901 4.15422 11.7074 6.94273 11.7074C9.62534 11.7074 11.6902 9.55169 11.6902 6.94032C11.7079 4.27639 9.51946 2.20833 6.96038 2.20833Z" fill="#FF690F"/>
<path d="M24.592 2.68152C25.1391 2.68152 25.651 2.78667 26.1451 2.99698C26.5157 3.15472 26.6746 3.55781 26.5157 3.90833C26.3745 4.27638 26.0039 4.43411 25.6156 4.32895C25.3509 4.25885 25.0861 4.18875 24.8214 4.13616C23.7448 3.9609 22.28 4.73205 21.9446 6.13413C21.9271 6.23928 21.9094 6.34443 21.874 6.43207C21.7682 6.83516 21.4328 7.063 21.027 7.01042C20.6387 6.94031 20.3916 6.5898 20.4622 6.16917C20.7269 4.6269 21.6094 3.55781 23.0565 2.94441C23.5507 2.76915 24.0625 2.68152 24.592 2.68152Z" fill="#363635"/>
<path d="M6.78355 2.66397C8.77787 2.61139 10.578 4.22378 10.8428 6.23926C10.8957 6.62483 10.6486 6.95782 10.2604 7.04545C9.88974 7.11556 9.55441 6.90524 9.44852 6.51967C9.39557 6.32689 9.36028 6.1341 9.30733 5.94132C8.95435 4.85472 7.84248 4.06605 6.71296 4.11863C6.44822 4.13615 6.20115 4.20626 5.93641 4.24131C5.84817 4.25883 5.75993 4.29388 5.65403 4.31141C5.26576 4.38151 4.91278 4.18872 4.80689 3.82068C4.701 3.47017 4.87748 3.10212 5.23046 2.94439C5.67168 2.76913 6.13055 2.69902 6.78355 2.66397Z" fill="#363635"/>
</g>
<defs>
<clipPath id="clip0_55_10070">
<rect width="170" height="18.1333" fill="white"/>
</clipPath>
</defs>
</svg>
