<svg width="120" height="69" viewBox="0 0 120 69" fill="none" xmlns="http://www.w3.org/2000/svg">
<path fill-rule="evenodd" clip-rule="evenodd" d="M54.0407 60.2249C54.3822 60.3733 54.6822 60.5761 54.9411 60.8345C55.1995 61.0934 55.4029 61.3934 55.5508 61.735C55.6985 62.0775 55.7729 62.4422 55.7729 62.8301C55.7729 63.2181 55.6985 63.5827 55.5508 63.9243C55.4029 64.2663 55.1995 64.5668 54.9411 64.8257C54.6822 65.0841 54.3822 65.2875 54.0407 65.4348C53.6987 65.5831 53.3335 65.6565 52.9461 65.6565C52.5581 65.6565 52.193 65.5831 51.8514 65.4348C51.5094 65.2875 51.2094 65.0841 50.9505 64.8257C50.6916 64.5668 50.4887 64.2663 50.3413 63.9243C50.1926 63.5827 50.1196 63.2181 50.1196 62.8301C50.1196 62.4422 50.1926 62.0775 50.3413 61.735C50.4887 61.3934 50.6916 61.0934 50.9505 60.8345C51.2094 60.5761 51.5094 60.3733 51.8514 60.2249C52.193 60.0776 52.5581 60.0032 52.9461 60.0032C53.3335 60.0032 53.6987 60.0776 54.0407 60.2249ZM68.2025 55.1797C67.9432 54.9212 67.6436 54.7184 67.3021 54.5701C66.9601 54.4228 66.5949 54.3483 66.2075 54.3483C65.8191 54.3483 65.4539 54.4228 65.1128 54.5701C64.7709 54.7184 64.4704 54.9212 64.212 55.1797C63.953 55.4386 63.7497 55.7386 63.6023 56.0802C63.454 56.4222 63.3806 56.7874 63.3806 57.1752C63.3806 57.5632 63.454 57.9279 63.6023 58.2694C63.7497 58.6115 63.953 58.9119 64.212 59.1704C64.4704 59.4293 64.7709 59.6326 65.1128 59.78C65.4539 59.9283 65.8191 60.0017 66.2075 60.0017C66.5949 60.0017 66.9601 59.9283 67.3021 59.78C67.6436 59.6326 67.9432 59.4293 68.2025 59.1704C68.461 58.9119 68.6644 58.6115 68.8122 58.2694C68.9595 57.9279 69.0344 57.5632 69.0344 57.1752C69.0344 56.7874 68.9595 56.4222 68.8122 56.0802C68.6644 55.7386 68.461 55.4386 68.2025 55.1797ZM73.7653 54.5701C74.1069 54.7184 74.4068 54.9212 74.6657 55.1797C74.9242 55.4386 75.1276 55.7386 75.2753 56.0802C75.4228 56.4222 75.4976 56.7874 75.4976 57.1752C75.4976 57.5632 75.4228 57.9279 75.2753 58.2694C75.1276 58.6115 74.9242 58.9119 74.6657 59.1704C74.4068 59.4293 74.1069 59.6326 73.7653 59.78C73.4228 59.9283 73.0581 60.0017 72.6707 60.0017C72.2823 60.0017 71.9171 59.9283 71.576 59.78C71.2341 59.6326 70.9335 59.4293 70.6751 59.1704C70.4162 58.9119 70.2128 58.6115 70.0655 58.2694C69.9172 57.9279 69.8437 57.5632 69.8437 57.1752C69.8437 56.7874 69.9172 56.4222 70.0655 56.0802C70.2128 55.7386 70.4162 55.4386 70.6751 55.1797C70.9335 54.9212 71.2341 54.7184 71.576 54.5701C71.9171 54.4228 72.2823 54.3483 72.6707 54.3483C73.0581 54.3483 73.4228 54.4228 73.7653 54.5701ZM89.4163 32.6418C89.1571 32.3834 88.8575 32.18 88.5159 32.0317C88.1743 31.8843 87.8091 31.8099 87.4215 31.8099C87.0337 31.8099 86.6684 31.8843 86.3269 32.0317C85.9849 32.18 85.685 32.3834 85.4259 32.6418C85.167 32.9007 84.9637 33.2007 84.8168 33.5422C84.668 33.8843 84.5946 34.249 84.5946 34.6374C84.5946 35.0252 84.668 35.39 84.8168 35.7315C84.9637 36.0735 85.167 36.374 85.4259 36.6325C85.685 36.8914 85.9849 37.0942 86.3269 37.2416C86.6684 37.3904 87.0337 37.4633 87.4215 37.4633C87.8091 37.4633 88.1743 37.3904 88.5159 37.2416C88.8575 37.0942 89.1571 36.8914 89.4163 36.6325C89.6747 36.374 89.8788 36.0735 90.026 35.7315C90.174 35.39 90.2485 35.0252 90.2485 34.6374C90.2485 34.249 90.174 33.8843 90.026 33.5422C89.8788 33.2007 89.6747 32.9007 89.4163 32.6418ZM91.2794 33.5422C91.1314 33.8843 91.0578 34.249 91.0578 34.6374C91.0578 35.0248 91.1314 35.39 91.2794 35.7315C91.4266 36.0735 91.6298 36.3735 91.889 36.6319C92.1474 36.8914 92.4479 37.0942 92.7895 37.2416C93.1311 37.3904 93.4963 37.4633 93.8844 37.4633C94.2724 37.4633 94.6368 37.3904 94.9793 37.2416C95.32 37.0942 95.6213 36.8914 95.8797 36.6319C96.1381 36.3735 96.3413 36.0735 96.4893 35.7315C96.6365 35.39 96.7109 35.0248 96.7109 34.6374C96.7109 34.249 96.6365 33.8843 96.4893 33.5422C96.3413 33.2007 96.1381 32.9007 95.8797 32.6418C95.6213 32.3834 95.32 32.18 94.9793 32.0317C94.6368 31.8839 94.2724 31.8099 93.8844 31.8099C93.4963 31.8099 93.1311 31.8839 92.7895 32.0317C92.4479 32.18 92.1474 32.3834 91.889 32.6418C91.6298 32.9007 91.4266 33.2007 91.2794 33.5422ZM58.1679 55.1797C57.909 54.9212 57.6085 54.7184 57.2675 54.5701C56.925 54.4228 56.5603 54.3483 56.1728 54.3483C55.7845 54.3483 55.4192 54.4228 55.0782 54.5701C54.7357 54.7184 54.4357 54.9212 54.1772 55.1797C53.9179 55.4386 53.7149 55.7386 53.5676 56.0802C53.4193 56.4222 53.3459 56.7874 53.3459 57.1752C53.3459 57.5632 53.4193 57.9279 53.5676 58.2694C53.7149 58.6115 53.9179 58.9119 54.1772 59.1704C54.4357 59.4293 54.7357 59.6326 55.0782 59.78C55.4192 59.9283 55.7845 60.0017 56.1728 60.0017C56.5603 60.0017 56.925 59.9283 57.2675 59.78C57.6085 59.6326 57.909 59.4293 58.1679 59.1704C58.4263 58.9119 58.6297 58.6115 58.7775 58.2694C58.9249 57.9279 58.9992 57.5632 58.9992 57.1752C58.9992 56.7874 58.9249 56.4222 58.7775 56.0802C58.6297 55.7386 58.4263 55.4386 58.1679 55.1797ZM52.3214 58.2694C52.1736 58.6115 51.9702 58.9114 51.7117 59.1699C51.4524 59.4288 51.1524 59.6322 50.8113 59.78C50.4688 59.9278 50.1041 60.0017 49.7167 60.0017C49.3283 60.0017 48.9631 59.9278 48.622 59.78C48.28 59.6322 47.9796 59.4288 47.7212 59.1699C47.4617 58.9114 47.2589 58.6115 47.1115 58.2694C46.9631 57.9279 46.8897 57.5627 46.8897 57.1748C46.8897 56.7868 46.9631 56.4222 47.1115 56.0802C47.2589 55.7381 47.4617 55.4381 47.7212 55.1792C47.9796 54.9208 48.28 54.7179 48.622 54.5701C48.9631 54.4222 49.3283 54.3483 49.7167 54.3483C50.1041 54.3483 50.4688 54.4222 50.8113 54.5701C51.1524 54.7179 51.4524 54.9208 51.7117 55.1792C51.9702 55.4381 52.1736 55.7381 52.3214 56.0802C52.4687 56.4222 52.5431 56.7868 52.5431 57.1748C52.5431 57.5627 52.4687 57.9279 52.3214 58.2694ZM94.501 39.3215V44.0213V45.0063C94.501 46.4096 93.3641 47.5468 91.9609 47.5468H86.9787V39.3215H81.9968V52.4784C81.9968 53.8821 80.8596 55.0193 79.4563 55.0193H77.0149V60.0017H79.4563C83.5938 60.0017 86.9507 56.6603 86.9773 52.5286H91.9609C96.1153 52.5286 99.4832 49.1606 99.4832 45.0063V39.3215H97.4213H94.501ZM73.2722 39.3223H78.2541V45.0076C78.2541 49.1614 74.8861 52.5294 70.7317 52.5294H68.2406C66.3058 52.5294 64.5422 51.798 63.2094 50.5981C61.8766 51.798 60.113 52.5294 58.1777 52.5294H48.1144C43.9601 52.5294 40.5921 49.1614 40.5921 45.0071V39.3223H45.574V45.0071C45.574 46.4104 46.7116 47.5476 48.1144 47.5476H58.1777C59.5811 47.5476 60.7182 46.4104 60.7182 45.0071V39.3223H65.7001V40.7372V45.0071C65.7001 46.4104 66.8377 47.5476 68.2406 47.5476H70.7317C72.135 47.5476 73.2722 46.4099 73.2722 45.0071V39.3223ZM30.1287 4.37939H24.844C24.8271 4.37939 24.8125 4.39003 24.8083 4.40693L21.2765 18.1565H24.2189C25.6425 18.1565 26.8864 17.1909 27.2419 15.8078L30.1645 4.42529C30.1703 4.4021 30.1529 4.37939 30.1287 4.37939ZM19.7197 23.0465C19.7168 21.2539 20.9337 19.7443 23.033 19.7404C25.132 19.7371 26.3542 21.2428 26.357 23.035C26.3599 24.8842 25.1431 26.3092 23.0437 26.3121C20.9448 26.3155 19.7226 24.8952 19.7197 23.0465ZM94.0867 26.3825H99.5182V4.41162H94.0867V26.3825ZM58.4876 9.85845C58.1451 9.71059 57.8451 9.50729 57.5867 9.24837C57.3278 8.98989 57.1244 8.69039 56.9771 8.34789C56.8288 8.00685 56.7553 7.64116 56.7553 7.25326C56.7553 6.86536 56.8288 6.50064 56.9771 6.15863C57.1244 5.8171 57.3278 5.51663 57.5867 5.25771C57.8451 4.99926 58.1451 4.79637 58.4876 4.64855C58.8292 4.50073 59.1939 4.42683 59.5818 4.42683C59.9697 4.42683 60.3344 4.50073 60.6764 4.64855C61.0185 4.79637 61.3185 4.99926 61.5769 5.25771C61.8358 5.51663 62.0387 5.8171 62.1865 6.15863C62.3348 6.50064 62.4087 6.86536 62.4087 7.25326C62.4087 7.64116 62.3348 8.00685 62.1865 8.34789C62.0387 8.69039 61.8358 8.98989 61.5769 9.24837C61.3185 9.50729 61.0185 9.71059 60.6764 9.85845C60.3344 10.0063 59.9697 10.0801 59.5818 10.0801C59.1939 10.0801 58.8292 10.0063 58.4876 9.85845ZM48.145 28.1379C47.803 27.9901 47.4383 27.9162 47.0504 27.9162C46.6624 27.9162 46.2968 27.9901 45.9558 28.1379C45.6137 28.2862 45.3137 28.4896 45.0548 28.748C44.7959 29.0069 44.5926 29.3069 44.4452 29.6485C44.2974 29.9905 44.2235 30.3552 44.2235 30.7436C44.2235 31.131 44.2974 31.4958 44.4452 31.8373C44.5926 32.1798 44.7959 32.4798 45.0548 32.7381C45.3137 32.9976 45.6137 33.2 45.9558 33.3478C46.2968 33.4962 46.6624 33.5696 47.0504 33.5696C47.4383 33.5696 47.803 33.4962 48.145 33.3478C48.4865 33.2 48.7865 32.9976 49.0455 32.7381C49.3039 32.4798 49.5072 32.1798 49.6551 31.8373C49.8029 31.4958 49.8768 31.131 49.8768 30.7436C49.8768 30.3552 49.8029 29.9905 49.6551 29.6485C49.5072 29.3069 49.3039 29.0069 49.0455 28.748C48.7865 28.4896 48.4865 28.2862 48.145 28.1379ZM43.1989 31.8373C43.0511 32.1798 42.8478 32.4798 42.5893 32.7381C42.3299 32.9972 42.0304 33.2 41.6888 33.3478C41.3469 33.4956 40.9816 33.5696 40.5942 33.5696C40.2058 33.5696 39.8407 33.4956 39.4996 33.3478C39.1576 33.2 38.8571 32.9972 38.5987 32.7381C38.3398 32.4798 38.1364 32.1798 37.9891 31.8373C37.8408 31.4958 37.7673 31.131 37.7673 30.7431C37.7673 30.3547 37.8408 29.9905 37.9891 29.6485C38.1364 29.3065 38.3398 29.0065 38.5987 28.7476C38.8571 28.4891 39.1576 28.2857 39.4996 28.1379C39.8407 27.9901 40.2058 27.9162 40.5942 27.9162C40.9816 27.9162 41.3469 27.9901 41.6888 28.1379C42.0304 28.2857 42.3299 28.4891 42.5893 28.7476C42.8478 29.0065 43.0511 29.3065 43.1989 29.6485C43.3463 29.9905 43.4211 30.3547 43.4211 30.7431C43.4211 31.131 43.3463 31.4958 43.1989 31.8373ZM36.1292 28.748C35.8702 28.4896 35.5702 28.2862 35.2287 28.1379C34.8867 27.9906 34.522 27.9162 34.1345 27.9162C33.7462 27.9162 33.3815 27.9906 33.0395 28.1379C32.6974 28.2862 32.3974 28.4896 32.139 28.748C31.8801 29.0069 31.6767 29.3069 31.5294 29.6485C31.3811 29.9905 31.3076 30.3552 31.3076 30.7436C31.3076 31.1315 31.3811 31.4958 31.5294 31.8377C31.6767 32.1798 31.8801 32.4802 32.139 32.7387C32.3974 32.9976 32.6974 33.2005 33.0395 33.3478C33.3815 33.4962 33.7462 33.5696 34.1345 33.5696C34.522 33.5696 34.8867 33.4962 35.2287 33.3478C35.5702 33.2005 35.8702 32.9976 36.1292 32.7387C36.3881 32.4802 36.5909 32.1798 36.7388 31.8377C36.8867 31.4958 36.961 31.1315 36.961 30.7436C36.961 30.3552 36.8867 29.9905 36.7388 29.6485C36.5909 29.3069 36.3881 29.0069 36.1292 28.748ZM51.5241 25.8433C50.8125 26.1665 49.958 26.3834 48.9605 26.3834L48.9624 26.3838H28.6836L29.4802 23.272C29.4802 23.272 29.7522 21.8488 31.325 21.3947C31.5651 21.3175 31.8347 21.2609 32.1434 21.2387H50.0845C50.528 21.1952 50.7754 21.0745 50.7754 21.0745C51.0526 20.9822 51.3019 20.8252 51.5241 20.6035C51.7821 20.3445 51.9622 19.9982 52.0637 19.5644C52.0729 19.526 52.0804 19.484 52.0878 19.442C52.0911 19.4243 52.0942 19.4065 52.0975 19.3891L52.0984 11.2793L57.149 11.2808V18.3325C57.149 19.034 57.1997 19.6021 57.3016 20.0368C57.305 20.0524 57.3095 20.0668 57.3142 20.0812C57.3154 20.0852 57.3167 20.0891 57.3179 20.093C57.32 20.0999 57.322 20.1066 57.3238 20.1136C57.459 20.4291 57.6364 20.7035 57.8571 20.9382C58.0769 21.173 58.3392 21.3556 58.6441 21.4875C58.931 21.6116 59.2339 21.6754 59.5518 21.6826H59.7488C60.0672 21.6754 60.3696 21.6116 60.6566 21.4875C60.9618 21.3556 61.2241 21.173 61.4444 20.9382C61.6565 20.7127 61.8284 20.4489 61.9617 20.148C61.9671 20.1363 61.9836 20.0905 61.9874 20.0789C61.9917 20.0654 61.9961 20.0518 61.9994 20.0368C62.1014 19.6021 62.1521 19.034 62.1521 18.3325V11.2827L67.2026 11.2812L67.2036 18.5465C67.2268 18.9475 67.2693 19.2968 67.3359 19.5827C67.4379 20.0166 67.618 20.3629 67.8764 20.6218C68.0982 20.8435 68.3475 21.0001 68.6243 21.0928C68.6243 21.0928 68.8716 21.2136 69.3156 21.257H84.4762C84.7941 21.2493 85.097 21.1861 85.3838 21.0619C85.6892 20.9305 85.951 20.7469 86.1713 20.5127C86.391 20.2784 86.5683 20.0035 86.7036 19.6881C86.7066 19.6765 86.7107 19.6654 86.7142 19.6543C86.7187 19.6403 86.7233 19.6261 86.7268 19.6108C86.8278 19.177 86.8789 18.6084 86.8789 17.9065V11.3189L91.9293 11.3209L91.9302 20.3687V20.3881V20.4035C91.9293 20.501 91.9276 20.5972 91.9232 20.6929L91.9223 20.7055L91.9215 20.7165C91.9066 20.9938 91.8759 21.2624 91.8277 21.5257L91.8172 21.5344C91.2663 24.3019 88.762 26.3926 85.7544 26.3926L70.4372 26.4037L70.4392 26.4032C69.4416 26.4032 68.5871 26.2414 67.876 25.9182C67.1654 25.5946 66.5596 25.1371 66.0606 24.5458C65.9597 24.427 65.8669 24.3038 65.7824 24.1782C64.6496 25.5076 62.9415 26.3563 61.0275 26.3563L59.7826 26.3684H59.5179L58.2735 26.3563C56.3717 26.3563 54.6732 25.5192 53.5405 24.2048L53.5357 24.2112C53.4726 24.2993 53.4101 24.3866 53.339 24.4709C52.8404 25.0622 52.2352 25.5197 51.5241 25.8433ZM21.3431 4.68218H21.3498L21.7464 5.7884H21.9227L22.3203 4.68218H22.3276V5.7884H22.6256V4.41745H22.144L21.8353 5.22853L21.5261 4.41745H21.044V5.7884H21.3431V4.68218ZM20.4665 5.79017H20.1375V4.68394H19.7197V4.41922H20.8839V4.68394H20.4665V5.79017Z" fill="#FF201B"/>
</svg>
