<?xml version="1.0" encoding="utf-8"?>
<!-- Generator: Adobe Illustrator 23.0.1, SVG Export Plug-In . SVG Version: 6.00 Build 0)  -->
<svg version="1.1" id="Layer_1" xmlns="http://www.w3.org/2000/svg" xmlns:xlink="http://www.w3.org/1999/xlink" x="0px" y="0px"
	 viewBox="0 0 647 408" style="enable-background:new 0 0 647 408;fill:#5a805a;" xml:space="preserve">
<g>
	
		<path d="M138.9,310.1c-42.6,0-85.1,0-127.7,0c-6.8,0-8.7-1.9-8.7-8.7c0-5.5,0-11,0-16.6c0-4.4,1.8-6.5,6.4-6.5
			c42.4,0.1,84.8,0,127.2,0c9.4,0,10.8-1.7,10.8-10.9c-0.1-36.3-0.6-72.7,0.1-109c0.3-15.2,10.6-25.3,22.7-33.3
			c28.6-18.9,64.3-5.2,78.4,16c3.8,5.7,5.7,12.1,5.7,18.9c0.1,35.3,0.1,70.5,0.1,105.8c0,0.9,0,1.8,0,2.7c-0.6,7.4,1.9,10.2,9.3,9.8
			c5.6-0.3,11.3-0.8,15.7-4.8c4.2-3.9,5.6-8.9,5.6-14.5c0-44,0-88,0-132c0-8.6,2.3-10.9,10.9-10.9c5,0,10,0,15,0.1
			c4.6,0.1,7.2,2.8,7.2,7.4c0,48.1,0.3,96.2-0.1,144.3c-0.1,15.1-9.4,25.2-21.6,32.8c-9.8,6.2-20.6,9.1-32.2,9.2
			c-41.6,0.1-83.2,0-124.8,0C138.9,310,138.9,310.1,138.9,310.1z M180.1,213.3C180.1,213.3,180.1,213.3,180.1,213.3
			c0,15.1-0.1,30.3,0,45.4c0.1,10.5,11.9,20.6,22.4,19.4c11.3-1.3,18.4-9.7,18.4-22.5c0.1-28.3,0.1-56.6,0-84.9
			c0-9-4.5-15.5-12.8-18c-12.5-3.8-29.3,1.5-28.2,19.5C180.8,185.9,180.1,199.6,180.1,213.3z"/>
		<path d="M644.2,206.1c0,14.1,0,28.1,0,42.2c0,10.8-5.4,18.5-14.3,23.6c-8.4,4.8-16.7,4.3-24.9-1.2c-2.6-1.8-5.7-2.2-8.9-0.2
			c-7,4.4-14.8,5.2-22.9,4.9c-3.1-0.1-4.3-2.5-4.7-5.3c-0.3-2-1.2-2.2-2.7-1.2c-6.1,4.5-12.9,6-20.5,5.8c-23.3-0.4-46.7-0.2-70-0.2
			c-2.6,0-5.1-0.4-7.7-1c-3.6-0.9-5,2.1-5.4,5.6c-1.3,11-5.1,21.1-12,29.8c-4.6,5.7-9.6,5.3-13.6-0.9c-2-3.1-5-5.7-3.6-10
			c0.2-0.7,0.3-1.5,0.7-2c8.5-9.6,9.1-21.3,9.8-33.4c1.8-34.2,0.5-68.4,0.9-102.6c0-2.7,1.3-4.1,4.1-4c3.6,0.1,7.3,0.2,11,0
			c4-0.2,5.1,1.7,5.1,5.3c-0.1,27.4-0.1,54.9-0.1,82.3c0,5.7,3.7,10.4,9.1,11.6c5.3,1.2,8.8-2.1,7.7-7.3c-0.1-0.6-0.1-1.2-0.1-1.9
			c0-19.1,0.5-38.3-0.1-57.4c-0.4-14.8,6.8-24,19.3-29.9c13.7-6.4,33.1-1.3,42.1,11c3.1,4.2,4.7,9,4.7,14.2
			c0.1,20.9,0,41.9,0.1,62.8c0,0.5,0.1,1.1-0.1,1.6c-1.2,2.8-1.4,5.5,1.7,6.8c3,1.2,4.9-1.5,6.6-3.5c1.8-2,2.6-4.5,2.6-7.4
			c-0.1-26.8-0.1-53.6-0.1-80.4c0-6,1.3-7.3,7.4-7.4c12.9-0.1,13-0.1,13,12.9c0,25.9,0,51.8,0,77.7c0,3.6,0.3,7.3,4.6,7.7
			c4,0.4,6-3.1,7.2-6.4c0.8-2.4,1.1-5.1,1.1-7.6c0-26.4,0-52.7-0.1-79.1c0-3.6,1.7-5.2,5.1-5.3c3,0,6.1-0.1,9.1-0.1
			c3.9,0.1,6.1,2,6.1,6.1c0,26.4,0,52.9,0,79.3c0,1.9,0,3.9,0.4,5.8c0.7,3.3,1.9,6.9,6.1,6.5c4.3-0.4,6-4.1,6-7.9
			c0.1-19.4,0.1-38.8,0.1-58.2c0-8.4,0-16.7,0-25.1c0-4.2,1.9-6.5,6.3-6.5c3.1,0,6.2-0.2,9.3,0c3,0.2,4.6,2,4.6,5.1
			C644.2,176.4,644.2,191.3,644.2,206.1C644.2,206.1,644.2,206.1,644.2,206.1z M501.5,215.6c0.1,0,0.2,0,0.3,0
			c0,9.4-0.2,18.9,0.1,28.3c0.2,5.9,6.9,11.5,12.8,11.5c6.4,0,11.5-4.7,11.9-11.3c1.1-18.2,0.6-36.5,0.4-54.7
			c-0.1-8.1-5.4-11.9-14.1-11.6c-6.9,0.3-11.3,5.1-11.4,12.5C501.5,198.7,501.5,207.2,501.5,215.6z"/>
		<path d="M435.2,140.6c0,42,0.2,84.1-0.1,126.1c-0.1,17.1-10.5,27.7-24.4,35.6c-9.7,5.4-20.2,7.8-31.2,7.9c-9.2,0-18.3,0-27.5,0
			c-4.4,0-8.1-3.9-8-8.3c0.1-5,0.1-10,0-15c0-5.4,3-8.4,8.3-8.5c10.6-0.1,21.1,0.6,31.7-0.5c12.4-1.3,18.6-8.5,18.6-21.5
			c-0.1-67.5-0.2-135-0.3-202.5c0-13.9,0-27.8,0-41.7c0-5.7,3.6-9.2,9.4-9.2c4.4,0,8.7,0,13.1,0c7.6,0,10.7,3,10.7,10.7
			c0,19.2-0.1,38.5-0.1,57.7c0,23.1,0,46.1,0,69.2C435.3,140.6,435.3,140.6,435.2,140.6z"/>
		<path d="M344.1,139.1c0-42.1,0-84.2,0-126.4c0-5.3,4-9.6,9.3-9.7c4.9-0.1,9.8-0.1,14.7,0c5.6,0.1,9.3,4,9.3,9.9
			c0,36.2-0.1,72.5-0.1,108.7c0,46.8,0.1,93.5,0.1,140.3c0,2.8,0.4,5.6-0.9,8.1c-1.5,3.1-3.9,5-7.6,4.9c-5.6-0.1-11.2,0-16.8-0.1
			c-4.4-0.1-8-4-8-8.4C344,224,344,181.6,344.1,139.1C344,139.1,344,139.1,344.1,139.1z"/>
		<path d="M198.6,111.3c-11.3,0-20.4-9.2-20.3-20.6c0-12.4,9.1-21.7,21.1-21.8c11.2,0,20.7,9.4,20.7,20.5
			C220.1,102.5,211.4,111.3,198.6,111.3z"/>
		<path d="M318.6,384.2c0.1,11.8-8.7,20.6-20.7,20.7c-10.7,0.1-20.6-8.4-20.6-17.7c0-15.6,7.2-24.2,20.4-24.3
			C310,362.8,318.6,371.6,318.6,384.2z"/>
		<path d="M318.7,338.9c0.1,11.2-8.7,20.7-19.6,20.9c-11.5,0.2-21.5-7.8-21.6-17.3c-0.2-15.7,7.1-24.8,20.1-25
			C309.4,317.3,318.6,326.6,318.7,338.9z"/>
		<path d="M514.1,124.6c7.2,0,12.9,5.8,12.9,13.1c0,6.5-5.9,12.7-12.1,12.6c-8.6-0.1-13.8-5.2-13.7-13.4
			C501.2,130,506.9,124.5,514.1,124.6z"/>
	
</g>
</svg>
