<svg width="92" height="92" viewBox="0 0 92 92" fill="none" xmlns="http://www.w3.org/2000/svg">
<path d="M89.125 61.8125H87.6875V50.3125C87.6855 48.7881 87.0791 47.3267 86.0012 46.2488C84.9233 45.1709 83.4619 44.5645 81.9375 44.5625V20.125C81.9355 18.6006 81.3291 17.1392 80.2512 16.0613C79.1733 14.9834 77.7119 14.377 76.1875 14.375H15.8125C14.2881 14.377 12.8267 14.9834 11.7488 16.0613C10.6709 17.1392 10.0645 18.6006 10.0625 20.125V44.5625C8.53812 44.5645 7.07674 45.1709 5.99884 46.2488C4.92094 47.3267 4.3145 48.7881 4.3125 50.3125V61.8125H2.875C2.49375 61.8125 2.12812 61.964 1.85853 62.2335C1.58895 62.5031 1.4375 62.8688 1.4375 63.25V69C1.4375 69.3812 1.58895 69.7469 1.85853 70.0165C2.12812 70.286 2.49375 70.4375 2.875 70.4375H4.3125V76.1875C4.3125 76.5687 4.46395 76.9344 4.73353 77.204C5.00312 77.4735 5.36875 77.625 5.75 77.625H10.0625C10.3947 77.6252 10.7167 77.5101 10.9736 77.2994C11.2305 77.0887 11.4064 76.7955 11.4712 76.4696L12.6787 70.4375H79.3213L80.5287 76.4696C80.5936 76.7955 80.7695 77.0887 81.0264 77.2994C81.2833 77.5101 81.6053 77.6252 81.9375 77.625H86.25C86.6312 77.625 86.9969 77.4735 87.2665 77.204C87.536 76.9344 87.6875 76.5687 87.6875 76.1875V70.4375H89.125C89.5062 70.4375 89.8719 70.286 90.1415 70.0165C90.411 69.7469 90.5625 69.3812 90.5625 69V63.25C90.5625 62.8688 90.411 62.5031 90.1415 62.2335C89.8719 61.964 89.5062 61.8125 89.125 61.8125ZM12.9375 20.125C12.9385 19.3628 13.2417 18.6321 13.7807 18.0932C14.3196 17.5542 15.0503 17.251 15.8125 17.25H76.1875C76.9497 17.251 77.6804 17.5542 78.2193 18.0932C78.7583 18.6321 79.0615 19.3628 79.0625 20.125V44.5625H76.1875V38.8125C76.1855 37.2881 75.5791 35.8267 74.5012 34.7488C73.4233 33.6709 71.9619 33.0645 70.4375 33.0625H53.1875C51.6631 33.0645 50.2017 33.6709 49.1238 34.7488C48.0459 35.8267 47.4395 37.2881 47.4375 38.8125V44.5625H44.5625V38.8125C44.5605 37.2881 43.9541 35.8267 42.8762 34.7488C41.7983 33.6709 40.3369 33.0645 38.8125 33.0625H21.5625C20.0381 33.0645 18.5767 33.6709 17.4988 34.7488C16.4209 35.8267 15.8145 37.2881 15.8125 38.8125V44.5625H12.9375V20.125ZM73.3125 38.8125V44.5625H50.3125V38.8125C50.3135 38.0503 50.6167 37.3196 51.1557 36.7807C51.6946 36.2417 52.4253 35.9385 53.1875 35.9375H70.4375C71.1997 35.9385 71.9304 36.2417 72.4693 36.7807C73.0083 37.3196 73.3115 38.0503 73.3125 38.8125ZM41.6875 38.8125V44.5625H18.6875V38.8125C18.6885 38.0503 18.9917 37.3196 19.5307 36.7807C20.0696 36.2417 20.8003 35.9385 21.5625 35.9375H38.8125C39.5747 35.9385 40.3054 36.2417 40.8443 36.7807C41.3833 37.3196 41.6865 38.0503 41.6875 38.8125ZM7.1875 50.3125C7.1885 49.5503 7.49172 48.8196 8.03067 48.2807C8.56962 47.7417 9.30031 47.4385 10.0625 47.4375H81.9375C82.6997 47.4385 83.4304 47.7417 83.9693 48.2807C84.5083 48.8196 84.8115 49.5503 84.8125 50.3125V61.8125H7.1875V50.3125ZM8.88375 74.75H7.1875V70.4375H9.74625L8.88375 74.75ZM84.8125 74.75H83.1162L82.2538 70.4375H84.8125V74.75ZM87.6875 67.5625H4.3125V64.6875H87.6875V67.5625Z" fill="black"/>
</svg>
