<svg width="92" height="92" viewBox="0 0 92 92" fill="none" xmlns="http://www.w3.org/2000/svg">
<path d="M79.1523 35.9375H61.9778L47.0745 19.1709C46.9398 19.0189 46.7743 18.8973 46.5891 18.8139C46.4039 18.7306 46.2031 18.6875 46 18.6875H40.25C40.0222 18.6875 39.7977 18.7416 39.5949 18.8454C39.3921 18.9492 39.2169 19.0997 39.0838 19.2844C38.9506 19.4692 38.8632 19.683 38.8288 19.9082C38.7945 20.1334 38.8141 20.3635 38.8862 20.5796L44.0055 35.9375H15.3489L9.96008 22.4663C9.85326 22.1996 9.669 21.9709 9.43105 21.8098C9.1931 21.6487 8.91235 21.5626 8.625 21.5625H2.875C2.49375 21.5625 2.12812 21.714 1.85853 21.9835C1.58895 22.2531 1.4375 22.6188 1.4375 23V47.4375C1.4375 52.1938 5.3475 56.0625 10.1523 56.0625H44.0055L38.8862 71.4204C38.8141 71.6365 38.7945 71.8666 38.8288 72.0918C38.8632 72.317 38.9506 72.5308 39.0838 72.7156C39.2169 72.9003 39.3921 73.0508 39.5949 73.1546C39.7977 73.2584 40.0222 73.3125 40.25 73.3125H46C46.2031 73.3125 46.4039 73.2694 46.5891 73.1861C46.7743 73.1027 46.9398 72.9811 47.0745 72.8291L61.9796 56.0625H82.0273C84.3148 56.0625 86.5086 55.1538 88.1261 53.5363C89.7436 51.9188 90.6523 49.725 90.6523 47.4375C90.6489 44.3886 89.4362 41.4655 87.2803 39.3096C85.1244 37.1536 82.2013 35.9409 79.1523 35.9375ZM42.2445 21.5625H45.3549L58.1325 35.9375H47.0368L42.2445 21.5625ZM45.3549 70.4375H42.2445L49.9118 47.4375H65.7998L45.3549 70.4375ZM86.0919 51.502C85.5596 52.038 84.9263 52.4629 84.2286 52.7522C83.5309 53.0415 82.7827 53.1895 82.0273 53.1875H64.5348L70.0745 46.9541C70.2584 46.747 70.3784 46.4911 70.4203 46.2174C70.4622 45.9436 70.4241 45.6635 70.3106 45.4109C70.1971 45.1582 70.013 44.9438 69.7805 44.7933C69.548 44.6428 69.277 44.5626 69 44.5625H48.875C48.5733 44.5625 48.2792 44.6574 48.0344 44.8338C47.7897 45.0102 47.6066 45.2592 47.5112 45.5454L44.9632 53.1875H10.1523C6.93234 53.1875 4.3125 50.609 4.3125 47.4375V24.4375H7.65109L13.0399 37.9087C13.1467 38.1754 13.331 38.4041 13.5689 38.5652C13.8069 38.7263 14.0876 38.8124 14.375 38.8125H79.1523C80.8462 38.8108 82.5025 39.311 83.9123 40.25H74.75C74.3688 40.25 74.0031 40.4014 73.7335 40.671C73.464 40.9406 73.3125 41.3063 73.3125 41.6875V47.4375C73.3125 47.8187 73.464 48.1844 73.7335 48.454C74.0031 48.7236 74.3688 48.875 74.75 48.875H87.5959C87.3394 49.8698 86.8199 50.7772 86.0919 51.502ZM76.1875 46V43.125H86.6166C87.1323 44.0133 87.4841 44.9872 87.6552 46H76.1875Z" fill="black"/>
<path d="M40.25 40.25H17.25C16.8688 40.25 16.5031 40.4014 16.2335 40.671C15.964 40.9406 15.8125 41.3063 15.8125 41.6875V47.4375C15.8125 47.8187 15.964 48.1844 16.2335 48.454C16.5031 48.7236 16.8688 48.875 17.25 48.875H40.25C40.6312 48.875 40.9969 48.7236 41.2665 48.454C41.5361 48.1844 41.6875 47.8187 41.6875 47.4375V41.6875C41.6875 41.3063 41.5361 40.9406 41.2665 40.671C40.9969 40.4014 40.6312 40.25 40.25 40.25ZM38.8125 46H18.6875V43.125H38.8125V46Z" fill="black"/>
</svg>
