<svg width="92" height="92" viewBox="0 0 92 92" fill="none" xmlns="http://www.w3.org/2000/svg">
<path d="M52.9047 44.7943L32.5754 65.1236C32.3058 65.3932 32.1544 65.7588 32.1544 66.14C32.1544 66.5212 32.3058 66.8868 32.5754 67.1564L35.6248 70.2057C35.7583 70.3392 35.9168 70.4451 36.0912 70.5173C36.2656 70.5896 36.4526 70.6268 36.6413 70.6268C36.8301 70.6268 37.017 70.5896 37.1915 70.5173C37.3659 70.4451 37.5243 70.3392 37.6578 70.2057L57.9871 49.8764C58.2567 49.6068 58.4081 49.2412 58.4081 48.86C58.4081 48.4788 58.2567 48.1132 57.9871 47.8436L54.9377 44.7943C54.8042 44.6608 54.6457 44.5549 54.4713 44.4827C54.2969 44.4104 54.1099 44.3732 53.9212 44.3732C53.7324 44.3732 53.5454 44.4104 53.371 44.4827C53.1966 44.5549 53.0382 44.6608 52.9047 44.7943ZM36.6413 67.1564L35.6248 66.1399L53.9212 47.8436L54.9377 48.8601L36.6413 67.1564ZM37.375 54.625C38.5122 54.625 39.6239 54.2878 40.5695 53.656C41.5151 53.0241 42.2521 52.1261 42.6873 51.0754C43.1225 50.0248 43.2364 48.8686 43.0145 47.7532C42.7927 46.6378 42.245 45.6133 41.4409 44.8091C40.6367 44.005 39.6122 43.4574 38.4968 43.2355C37.3814 43.0136 36.2252 43.1275 35.1746 43.5627C34.1239 43.9979 33.2259 44.7349 32.5941 45.6805C31.9622 46.6261 31.625 47.7378 31.625 48.875C31.6267 50.3995 32.2331 51.861 33.311 52.939C34.389 54.0169 35.8505 54.6233 37.375 54.625ZM37.375 46C37.9436 46 38.4995 46.1686 38.9723 46.4845C39.4451 46.8004 39.8136 47.2495 40.0312 47.7748C40.2488 48.3001 40.3057 48.8782 40.1948 49.4359C40.0838 49.9936 39.81 50.5059 39.4079 50.9079C39.0059 51.31 38.4936 51.5838 37.9359 51.6948C37.3782 51.8057 36.8001 51.7488 36.2748 51.5312C35.7494 51.3136 35.3004 50.9451 34.9845 50.4723C34.6686 49.9995 34.5 49.4436 34.5 48.875C34.5009 48.1128 34.8041 47.382 35.3431 46.8431C35.882 46.3041 36.6128 46.0009 37.375 46Z" fill="black"/>
<path d="M37.375 50.3125C38.1689 50.3125 38.8125 49.6689 38.8125 48.875C38.8125 48.0811 38.1689 47.4375 37.375 47.4375C36.5811 47.4375 35.9375 48.0811 35.9375 48.875C35.9375 49.6689 36.5811 50.3125 37.375 50.3125Z" fill="black"/>
<path d="M53.1875 60.375C52.0503 60.375 50.9386 60.7122 49.993 61.3441C49.0474 61.9759 48.3104 62.8739 47.8752 63.9246C47.44 64.9752 47.3261 66.1314 47.548 67.2468C47.7699 68.3622 48.3175 69.3867 49.1216 70.1909C49.9258 70.995 50.9503 71.5427 52.0657 71.7645C53.1811 71.9864 54.3373 71.8725 55.3879 71.4373C56.4386 71.0021 57.3366 70.2651 57.9685 69.3195C58.6003 68.3739 58.9375 67.2622 58.9375 66.125C58.9358 64.6005 58.3294 63.139 57.2515 62.061C56.1735 60.9831 54.712 60.3767 53.1875 60.375ZM53.1875 69C52.6189 69 52.063 68.8314 51.5902 68.5155C51.1174 68.1996 50.749 67.7506 50.5313 67.2252C50.3137 66.6999 50.2568 66.1218 50.3677 65.5641C50.4787 65.0064 50.7525 64.4941 51.1546 64.0921C51.5566 63.69 52.0689 63.4162 52.6266 63.3052C53.1843 63.1943 53.7624 63.2512 54.2877 63.4688C54.8131 63.6864 55.2621 64.0549 55.578 64.5277C55.8939 65.0005 56.0625 65.5564 56.0625 66.125C56.0616 66.8872 55.7584 67.618 55.2194 68.1569C54.6805 68.6959 53.9497 68.9991 53.1875 69Z" fill="black"/>
<path d="M53.1875 67.5625C53.9814 67.5625 54.625 66.9189 54.625 66.125C54.625 65.3311 53.9814 64.6875 53.1875 64.6875C52.3936 64.6875 51.75 65.3311 51.75 66.125C51.75 66.9189 52.3936 67.5625 53.1875 67.5625Z" fill="black"/>
<path d="M71.5875 26.45L58.65 9.2C58.516 9.02156 58.3424 8.87672 58.1428 8.77693C57.9432 8.67714 57.7231 8.62513 57.5 8.625H47.4375V2.875C47.4375 2.49375 47.2861 2.12812 47.0165 1.85853C46.7469 1.58895 46.3812 1.4375 46 1.4375C45.6188 1.4375 45.2531 1.58895 44.9835 1.85853C44.7139 2.12812 44.5625 2.49375 44.5625 2.875V8.625H34.5C34.2769 8.62513 34.0568 8.67714 33.8572 8.77693C33.6576 8.87672 33.484 9.02156 33.35 9.2L20.4125 26.45C20.2257 26.6987 20.1248 27.0014 20.125 27.3125V89.125C20.125 89.5062 20.2765 89.8719 20.546 90.1415C20.8156 90.411 21.1813 90.5625 21.5625 90.5625H70.4375C70.8187 90.5625 71.1844 90.411 71.454 90.1415C71.7235 89.8719 71.875 89.5062 71.875 89.125V27.3125C71.8752 27.0014 71.7743 26.6987 71.5875 26.45ZM47.4375 20.5149C47.8744 20.7662 48.2374 21.1282 48.4898 21.5645C48.7422 22.0008 48.8751 22.496 48.8751 23C48.8751 23.504 48.7422 23.9992 48.4898 24.4355C48.2374 24.8718 47.8744 25.2338 47.4375 25.4851V20.5149ZM69 87.6875H23V27.7923L35.2188 11.5H44.5625V17.4315C43.2074 17.7814 42.0265 18.6134 41.241 19.7717C40.4555 20.9301 40.1195 22.3351 40.2958 23.7234C40.4722 25.1118 41.1488 26.3882 42.1989 27.3133C43.249 28.2385 44.6005 28.7489 46 28.7489C47.3995 28.7489 48.751 28.2385 49.8011 27.3133C50.8512 26.3882 51.5278 25.1118 51.7042 23.7234C51.8805 22.3351 51.5445 20.9301 50.759 19.7717C49.9735 18.6134 48.7926 17.7814 47.4375 17.4315V11.5H56.7812L69 27.7923V87.6875ZM44.5625 20.5149V25.4851C44.1256 25.2338 43.7626 24.8718 43.5102 24.4355C43.2578 23.9992 43.1249 23.504 43.1249 23C43.1249 22.496 43.2578 22.0008 43.5102 21.5645C43.7626 21.1282 44.1256 20.7662 44.5625 20.5149Z" fill="black"/>
<path d="M46 81.9375C45.6188 81.9375 45.2531 82.0889 44.9835 82.3585C44.7139 82.6281 44.5625 82.9938 44.5625 83.375C44.5625 83.7562 44.7139 84.1219 44.9835 84.3915C45.2531 84.6611 45.6188 84.8125 46 84.8125H58.9375C59.3187 84.8125 59.6844 84.6611 59.954 84.3915C60.2236 84.1219 60.375 83.7562 60.375 83.375C60.375 82.9938 60.2236 82.6281 59.954 82.3585C59.6844 82.0889 59.3187 81.9375 58.9375 81.9375H46ZM63.25 84.8125H64.6875C65.0687 84.8125 65.4344 84.6611 65.704 84.3915C65.9736 84.1219 66.125 83.7562 66.125 83.375C66.125 82.9938 65.9736 82.6281 65.704 82.3585C65.4344 82.0889 65.0687 81.9375 64.6875 81.9375H63.25C62.8688 81.9375 62.5031 82.0889 62.2335 82.3585C61.9639 82.6281 61.8125 82.9938 61.8125 83.375C61.8125 83.7562 61.9639 84.1219 62.2335 84.3915C62.5031 84.6611 62.8688 84.8125 63.25 84.8125Z" fill="black"/>
</svg>
