<svg xmlns="http://www.w3.org/2000/svg" version="1.1" xmlns:xlink="http://www.w3.org/1999/xlink" width="512" height="512" x="0" y="0" viewBox="0 0 512 512" style="enable-background:new 0 0 512 512" xml:space="preserve" className=""><g><path d="M462.9 512H49.1c-19.7 0-35.7-16-35.7-35.8V310.9c0-17.5 12.6-32.4 29.8-35.2l161.7-27.2V118.9c0-14.9 9.3-28.2 23.2-33.5L450.3 2.3c18.5-6.9 39.1 2.5 46 21 1.5 4 2.3 8.2 2.3 12.5v440.5c0 19.7-16 35.7-35.7 35.7zm0-505.8c-3.5 0-7 .6-10.4 1.8L230.2 91.2c-11.5 4.4-19.2 15.4-19.2 27.7V251c0 1.5-1.1 2.7-2.6 3L44.2 281.7c-14.3 2.4-24.7 14.7-24.6 29.2v165.4c0 16.3 13.2 29.5 29.6 29.6h413.7c16.3 0 29.5-13.2 29.6-29.6V35.7c0-9.7-4.8-18.8-12.7-24.3-5.1-3.4-10.9-5.2-16.9-5.2zm0 474.2h-60.1c-1.7 0-3.1-1.4-3.1-3.1v-55.8c0-7-5.7-12.7-12.7-12.7h-78.6c-7 0-12.7 5.7-12.7 12.7v55.8c0 1.7-1.4 3.1-3.1 3.1h-53.1c-1.7 0-3.1-1.4-3.1-3.1V118.9c0-1.7 1.1-3.3 2.7-3.9l222.3-83.1c2.1-.8 4.5.3 5.3 2.4.2.5.3 1 .3 1.5v440.5c0 2.3-1.8 4.1-4.1 4.1zm-57-6.1h55V38.6l-218.2 81.6v354h46.9v-52.7c0-10.4 8.5-18.9 18.9-18.9H387c10.4 0 18.9 8.5 18.9 18.9zm-34.7 6.1h-47c-1.7 0-3.1-1.4-3.1-3.1v-40c0-1.7 1.4-3.1 3.1-3.1h47c1.7 0 3.1 1.4 3.1 3.1v40c0 1.7-1.4 3.1-3.1 3.1zm-43.9-6.1h40.9v-33.8h-40.8zM208 480.4H49.1c-2.3 0-4.1-1.9-4.2-4.2V310.9c0-2 1.4-3.7 3.4-4.1l159-26.8c1.7-.3 3.3.8 3.6 2.5v194.8c.1 1.7-1.2 3.1-2.9 3.1zm-156.8-6.2h153.7V286.7L51.2 312.6z" fill="#ffffff" opacity="1" data-original="#ffffff" className=""></path><path d="M297.8 384.6h-21.2c-4.8 0-8.8-3.9-8.8-8.8v-21.2c0-4.8 3.9-8.8 8.8-8.8h21.2c4.8 0 8.8 3.9 8.8 8.8v21.2c0 4.8-3.9 8.8-8.8 8.8zM276.6 352c-1.4 0-2.6 1.2-2.6 2.6v21.2c0 1.4 1.2 2.6 2.6 2.6h21.2c1.4 0 2.6-1.2 2.6-2.6v-21.2c0-1.4-1.2-2.6-2.6-2.6zM359.3 384.6h-21.2c-4.8 0-8.8-3.9-8.8-8.8v-21.2c0-4.8 3.9-8.8 8.8-8.8h21.2c4.8 0 8.8 3.9 8.8 8.8v21.2c-.1 4.8-4 8.8-8.8 8.8zM338.1 352c-1.4 0-2.6 1.2-2.6 2.6v21.2c0 1.4 1.1 2.6 2.6 2.6h21.2c1.4 0 2.6-1.2 2.6-2.6v-21.2c0-1.4-1.2-2.6-2.6-2.6zM420.7 384.6h-21.2c-4.8 0-8.8-3.9-8.8-8.8v-21.2c0-4.8 3.9-8.8 8.8-8.8h21.2c4.8 0 8.8 3.9 8.8 8.8v21.2c0 4.8-3.9 8.8-8.8 8.8zM399.5 352c-1.4 0-2.6 1.2-2.6 2.6v21.2c0 1.4 1.1 2.6 2.6 2.6h21.2c1.4 0 2.6-1.2 2.6-2.6v-21.2c0-1.4-1.2-2.6-2.6-2.6zM297.8 321.6h-21.2c-4.8 0-8.8-3.9-8.8-8.8v-21.2c0-4.8 3.9-8.8 8.8-8.8h21.2c4.8 0 8.8 3.9 8.8 8.8v21.2c0 4.9-3.9 8.8-8.8 8.8zM276.6 289c-1.4 0-2.6 1.2-2.6 2.6v21.2c0 1.4 1.2 2.6 2.6 2.6h21.2c1.4 0 2.6-1.2 2.6-2.6v-21.2c0-1.4-1.2-2.6-2.6-2.6zM359.3 321.6h-21.2c-4.8 0-8.8-3.9-8.8-8.8v-21.2c0-4.8 3.9-8.8 8.8-8.8h21.2c4.8 0 8.8 3.9 8.8 8.8v21.2c-.1 4.9-4 8.8-8.8 8.8zM338.1 289c-1.4 0-2.6 1.2-2.6 2.6v21.2c0 1.4 1.2 2.6 2.6 2.6h21.2c1.4 0 2.6-1.2 2.6-2.6v-21.2c0-1.4-1.2-2.6-2.6-2.6zM420.7 321.6h-21.2c-4.8 0-8.8-3.9-8.8-8.8v-21.2c0-4.8 3.9-8.8 8.8-8.8h21.2c4.8 0 8.8 3.9 8.8 8.8v21.2c0 4.9-3.9 8.8-8.8 8.8zM399.5 289c-1.4 0-2.6 1.2-2.6 2.6v21.2c0 1.4 1.2 2.6 2.6 2.6h21.2c1.4 0 2.6-1.2 2.6-2.6v-21.2c0-1.4-1.2-2.6-2.6-2.6zM297.8 258.6h-21.2c-4.8 0-8.8-3.9-8.8-8.8v-21.2c0-4.8 3.9-8.8 8.8-8.8h21.2c4.8 0 8.8 3.9 8.8 8.8v21.2c0 4.9-3.9 8.8-8.8 8.8zM276.6 226c-1.4 0-2.6 1.2-2.6 2.6v21.2c0 1.4 1.2 2.6 2.6 2.6h21.2c1.4 0 2.6-1.2 2.6-2.6v-21.2c0-1.4-1.2-2.6-2.6-2.6zM359.3 258.6h-21.2c-4.8 0-8.8-3.9-8.8-8.8v-21.2c0-4.8 3.9-8.8 8.8-8.8h21.2c4.8 0 8.8 3.9 8.8 8.8v21.2c-.1 4.9-4 8.8-8.8 8.8zM338.1 226c-1.4 0-2.6 1.2-2.6 2.6v21.2c0 1.4 1.2 2.6 2.6 2.6h21.2c1.4 0 2.6-1.2 2.6-2.6v-21.2c0-1.4-1.2-2.6-2.6-2.6zM420.7 258.6h-21.2c-4.8 0-8.8-3.9-8.8-8.8v-21.2c0-4.8 3.9-8.8 8.8-8.8h21.2c4.8 0 8.8 3.9 8.8 8.8v21.2c0 4.9-3.9 8.8-8.8 8.8zM399.5 226c-1.4 0-2.6 1.2-2.6 2.6v21.2c0 1.4 1.2 2.6 2.6 2.6h21.2c1.4 0 2.6-1.2 2.6-2.6v-21.2c0-1.4-1.2-2.6-2.6-2.6zM297.8 195.6h-21.2c-4.8 0-8.8-3.9-8.8-8.8v-21.2c0-4.8 3.9-8.8 8.8-8.8h21.2c4.8 0 8.8 3.9 8.8 8.8v21.2c0 4.9-3.9 8.8-8.8 8.8zm-21.2-32.5c-1.4 0-2.6 1.2-2.6 2.6v21.2c0 1.4 1.2 2.6 2.6 2.6h21.2c1.4 0 2.6-1.2 2.6-2.6v-21.2c0-1.4-1.2-2.6-2.6-2.6zM359.3 195.6h-21.2c-4.8 0-8.8-3.9-8.8-8.8v-21.2c0-4.8 3.9-8.8 8.8-8.8h21.2c4.8 0 8.8 3.9 8.8 8.8v21.2c-.1 4.9-4 8.8-8.8 8.8zm-21.2-32.5c-1.4 0-2.6 1.1-2.6 2.6v21.2c0 1.4 1.2 2.6 2.6 2.6h21.2c1.4 0 2.6-1.2 2.6-2.6v-21.2c0-1.4-1.2-2.6-2.6-2.6zM420.7 195.6h-21.2c-4.8 0-8.8-3.9-8.8-8.8v-21.2c0-4.8 3.9-8.8 8.8-8.8h21.2c4.8 0 8.8 3.9 8.8 8.8v21.2c0 4.9-3.9 8.8-8.8 8.8zm-21.2-32.5c-1.4 0-2.6 1.1-2.6 2.6v21.2c0 1.4 1.2 2.6 2.6 2.6h21.2c1.4 0 2.6-1.2 2.6-2.6v-21.2c0-1.4-1.1-2.6-2.6-2.6zM359.3 132.6h-21.2c-4.8 0-8.8-3.9-8.8-8.8v-21.2c0-4.8 3.9-8.8 8.8-8.8h21.2c4.8 0 8.8 3.9 8.8 8.8v21.2c-.1 4.9-4 8.8-8.8 8.8zm-21.2-32.5c-1.4 0-2.6 1.1-2.6 2.6v21.2c0 1.4 1.2 2.6 2.6 2.6h21.2c1.4 0 2.6-1.2 2.6-2.6v-21.2c0-1.4-1.2-2.6-2.6-2.6zM158.1 384.6H97.8c-10.7-.2-19.2-9.1-18.9-19.8.2-10.4 8.6-18.7 18.9-18.9h60.3c10.7-.2 19.6 8.2 19.8 18.9s-8.2 19.6-18.9 19.8h-.9zM97.8 352c-7.3 0-13.2 5.9-13.2 13.2s5.9 13.2 13.2 13.2h60.3c7.3 0 13.2-5.9 13.2-13.2s-5.9-13.2-13.2-13.2zM158.1 446.5H97.8c-10.7-.2-19.2-9.1-18.9-19.8.2-10.4 8.6-18.7 18.9-18.9h60.3c10.7-.2 19.6 8.2 19.8 18.9s-8.2 19.6-18.9 19.8h-.9zM97.8 414c-7.3-.2-13.4 5.5-13.6 12.8s5.5 13.4 12.8 13.6h61c7.3.2 13.4-5.5 13.6-12.8s-5.5-13.4-12.8-13.6h-.7zM420.7 132.6h-21.2c-4.8 0-8.8-3.9-8.8-8.8v-21.2c0-4.8 3.9-8.8 8.8-8.8h21.2c4.8 0 8.8 3.9 8.8 8.8v21.2c0 4.9-3.9 8.8-8.8 8.8zm-21.2-32.5c-1.4 0-2.6 1.1-2.6 2.6v21.2c0 1.4 1.2 2.6 2.6 2.6h21.2c1.4 0 2.6-1.2 2.6-2.6v-21.2c0-1.4-1.2-2.6-2.6-2.6z" fill="#ffffff" opacity=".4" data-original="#ffffff" className=""></path></g></svg>