<svg width="32" height="32" viewBox="0 0 32 32" fill="none" xmlns="http://www.w3.org/2000/svg">
<g clip-path="url(#clip0_67_11124)">
<path d="M13.8111 0.936524L10.8654 0.168486C10.2362 0.000859212 9.5802 -0.0411226 8.93481 0.0449411C8.28943 0.131005 7.66733 0.343426 7.10409 0.670062C6.54085 0.996697 6.04752 1.43114 5.65228 1.94856C5.25705 2.46597 4.96767 3.05621 4.80068 3.68554L4.06543 6.46265C6.4901 3.44485 9.97653 1.46792 13.8111 0.936524Z" fill="#231F20"/>
<path d="M0.890007 18.4189L0.168801 21.1399C-0.168327 22.4098 0.0128116 23.7617 0.672373 24.8982C1.33193 26.0346 2.4159 26.8626 3.68585 27.1999L6.49574 27.9492C3.49541 25.5902 1.49391 22.1875 0.890007 18.4189Z" fill="#231F20"/>
<path d="M28.3139 4.8002L25.1621 3.96191C26.7547 5.18697 28.0881 6.71614 29.085 8.46066C30.0819 10.2052 30.7223 12.1303 30.9692 14.1244L31.8356 10.8462C32.1683 9.57748 31.9845 8.22864 31.3243 7.09531C30.6642 5.96198 29.5816 5.13663 28.3139 4.8002Z" fill="#231F20"/>
<path d="M18.1191 31.0307L21.1398 31.8456C22.4098 32.1827 23.7617 32.0016 24.8981 31.342C26.0346 30.6824 26.8625 29.5985 27.1998 28.3285L28.0521 25.1252C25.649 28.3261 22.0791 30.4485 18.1191 31.0307Z" fill="#231F20"/>
<path d="M16.002 2.12622C13.2573 2.1253 10.574 2.93833 8.2915 4.4625C6.00896 5.98668 4.22968 8.15352 3.17871 10.689C2.12773 13.2244 1.85227 16.0146 2.38716 18.7066C2.92204 21.3987 4.24325 23.8716 6.18369 25.8127C8.12412 27.7538 10.5966 29.0758 13.2885 29.6116C15.9803 30.1474 18.7706 29.8729 21.3064 28.8228C23.8422 27.7727 26.0097 25.9941 27.5346 23.7121C29.0595 21.4301 29.8735 18.7471 29.8735 16.0024C29.8735 12.323 28.4122 8.79427 25.8109 6.19212C23.2096 3.58996 19.6814 2.12746 16.002 2.12622ZM8.14364 9.04792C8.29201 8.27861 8.66515 7.57055 9.21588 7.01328C9.76662 6.456 10.4702 6.07453 11.2377 5.91708C12.0052 5.75963 12.8022 5.83328 13.5279 6.12872C14.2535 6.42416 14.8753 6.92812 15.3146 7.57689C15.7538 8.22565 15.9909 8.9901 15.9958 9.77358C16.0006 10.5571 15.7731 11.3244 15.3419 11.9786C14.9107 12.6328 14.2953 13.1444 13.5734 13.4488C12.8514 13.7533 12.0554 13.8368 11.286 13.6889C10.7749 13.5907 10.2881 13.3927 9.85353 13.1062C9.41894 12.8198 9.04505 12.4505 8.75323 12.0195C8.46141 11.5885 8.25737 11.1043 8.15277 10.5944C8.04817 10.0845 8.04507 9.559 8.14364 9.04792ZM13.9086 21.0368C13.7592 21.8058 13.3851 22.5133 12.8337 23.0698C12.2823 23.6263 11.5783 24.0068 10.8106 24.1633C10.043 24.3197 9.24619 24.2451 8.52096 23.9488C7.79573 23.6525 7.17462 23.1479 6.73614 22.4987C6.29766 21.8494 6.06149 21.0848 6.05749 20.3014C6.05348 19.518 6.28182 18.751 6.71364 18.0973C7.14546 17.4436 7.76138 16.9327 8.48354 16.629C9.20571 16.3253 10.0017 16.2425 10.7709 16.3911C11.2821 16.4899 11.7688 16.6884 12.2032 16.9754C12.6376 17.2624 13.0112 17.6322 13.3026 18.0636C13.594 18.4951 13.7975 18.9797 13.9015 19.4899C14.0055 20.0001 14.0079 20.5257 13.9086 21.0368ZM15.5899 17.8288C15.2484 17.7628 14.9341 17.5971 14.6867 17.3526C14.4393 17.1082 14.2698 16.7959 14.1996 16.4553C14.1295 16.1146 14.1618 15.7608 14.2924 15.4385C14.4231 15.1161 14.6463 14.8397 14.9339 14.6441C15.2215 14.4485 15.5605 14.3424 15.9083 14.3392C16.2561 14.3361 16.597 14.436 16.8881 14.6264C17.1792 14.8167 17.4074 15.0891 17.5439 15.409C17.6804 15.7289 17.7191 16.082 17.6551 16.4239C17.6124 16.6521 17.525 16.8696 17.398 17.0639C17.2709 17.2581 17.1067 17.4254 16.9147 17.556C16.7228 17.6865 16.5069 17.7779 16.2795 17.8247C16.0522 17.8715 15.8178 17.8729 15.5899 17.8288ZM23.8556 22.9475C23.7073 23.7168 23.3341 24.4249 22.7834 24.9822C22.2326 25.5395 21.529 25.9209 20.7615 26.0784C19.994 26.2358 19.1971 26.1622 18.4714 25.8667C17.7457 25.5713 17.124 25.0673 16.6847 24.4186C16.2454 23.7698 16.0084 23.0054 16.0035 22.2219C15.9986 21.4384 16.2262 20.6711 16.6573 20.0169C17.0885 19.3627 17.704 18.8511 18.4259 18.5466C19.1478 18.2422 19.9438 18.1586 20.7132 18.3065C21.2244 18.4048 21.7111 18.6028 22.1457 18.8892C22.5803 19.1757 22.9542 19.5449 23.246 19.9759C23.5379 20.4069 23.7419 20.8912 23.8465 21.4011C23.9511 21.911 23.9542 22.4365 23.8556 22.9475ZM21.2331 15.6043C20.4637 15.456 19.7557 15.0828 19.1984 14.5321C18.6411 13.9814 18.2597 13.2778 18.1022 12.5103C17.9448 11.7427 18.0184 10.9458 18.3139 10.2201C18.6093 9.49446 19.1132 8.87269 19.762 8.43342C20.4108 7.99414 21.1752 7.75708 21.9587 7.75221C22.7422 7.74734 23.5095 7.97488 24.1637 8.40605C24.8179 8.83723 25.3295 9.45269 25.634 10.1746C25.9384 10.8965 26.022 11.6925 25.8741 12.4619C25.7763 12.9735 25.5787 13.4608 25.2925 13.8959C25.0063 14.331 24.6371 14.7054 24.2061 14.9977C23.775 15.29 23.2906 15.4945 22.7804 15.5994C22.2703 15.7043 21.7445 15.7075 21.2331 15.609V15.6043Z" fill="#ED145B"/>
</g>
<defs>
<clipPath id="clip0_67_11124">
<rect width="32" height="32" fill="white"/>
</clipPath>
</defs>
</svg>
