<svg width="32" height="32" viewBox="0 0 32 32" fill="none" xmlns="http://www.w3.org/2000/svg">
<g clip-path="url(#clip0_67_11115)">
<path d="M31.9037 9.40331C31.8259 7.70019 31.5554 6.53706 31.1599 5.51956C30.7582 4.45191 30.1284 3.48475 29.3144 2.68556C28.5152 1.87149 27.5481 1.24153 26.4804 0.839625C25.4626 0.444312 24.2998 0.174062 22.5967 0.0966875C20.8904 0.0185625 20.3452 0 16 0C11.6548 0 11.1096 0.0185625 9.40331 0.09625C7.70019 0.174062 6.53738 0.444562 5.51956 0.840062C4.45188 1.24178 3.4847 1.87162 2.6855 2.68562C1.87143 3.48473 1.24147 4.45179 0.839562 5.51937C0.44425 6.53719 0.174 7.70025 0.096625 9.40312C0.0185625 11.1096 0 11.6546 0 15.9997C0 20.3452 0.0185625 20.8904 0.0966875 22.5966C0.174313 24.2996 0.444812 25.4626 0.840312 26.4805C1.24203 27.5481 1.87184 28.5152 2.68581 29.3142C3.48495 30.1282 4.45209 30.758 5.51975 31.1597C6.53737 31.5554 7.70044 31.8257 9.40356 31.9036C11.1101 31.9814 11.655 31.9998 16.0002 31.9998C20.3454 31.9998 20.8906 31.9814 22.5969 31.9036C24.3001 31.8257 25.4629 31.5554 26.4807 31.1597C27.5436 30.7487 28.5088 30.1202 29.3146 29.3144C30.1204 28.5086 30.7489 27.5433 31.1599 26.4804C31.5557 25.4626 31.8259 24.2996 31.9038 22.5967C31.9814 20.8901 32 20.3452 32 16C32 11.6546 31.9814 11.1096 31.9037 9.40331ZM29.0238 22.4656C28.9527 24.0257 28.6919 24.8729 28.4729 25.4366C28.2068 26.1266 27.7991 26.7533 27.2761 27.2763C26.7531 27.7993 26.1264 28.207 25.4363 28.4732C24.8726 28.6922 24.0254 28.9529 22.4654 29.024C20.7786 29.1011 20.2725 29.1172 16.0001 29.1172C11.7274 29.1172 11.2215 29.1011 9.53444 29.024C7.97469 28.9529 7.12756 28.6922 6.56356 28.4732C5.86864 28.2166 5.24003 27.8076 4.72394 27.2762C4.19248 26.7601 3.78345 26.1315 3.52694 25.4366C3.30794 24.8728 3.04719 24.0257 2.97613 22.4656C2.89925 20.7786 2.88287 20.2725 2.88287 16.0003C2.88287 11.7278 2.89925 11.222 2.97613 9.53469C3.04737 7.97469 3.30794 7.1275 3.52694 6.56381C3.78354 5.86883 4.19255 5.24015 4.72394 4.72394C5.24003 4.19247 5.86875 3.78351 6.56381 3.52719C7.12756 3.30794 7.97469 3.04744 9.53475 2.97612C11.2218 2.89925 11.7279 2.88287 16.0001 2.88287H15.9998C20.2721 2.88287 20.7781 2.89925 22.4654 2.97637C24.0254 3.04744 24.8724 3.30819 25.4363 3.52719C26.1312 3.78376 26.7598 4.19269 27.2759 4.72394C27.8074 5.24002 28.2164 5.86875 28.4727 6.56381C28.6919 7.12756 28.9528 7.97469 29.0238 9.53475C29.1006 11.2217 29.117 11.7279 29.117 16.0001C29.117 20.2726 29.1009 20.7783 29.0238 22.4656Z" fill="url(#paint0_linear_67_11115)"/>
<path d="M15.9993 7.78369C11.4617 7.78369 7.7832 11.4623 7.7832 15.9999C7.7832 20.5376 11.4617 24.216 15.9993 24.216C20.5371 24.216 24.2156 20.5376 24.2156 15.9999C24.2156 11.4623 20.5371 7.78369 15.9993 7.78369ZM15.9993 21.3332C13.054 21.3329 10.666 18.9453 10.6663 15.9997C10.6663 13.0544 13.054 10.6664 15.9995 10.6664C18.9451 10.6667 21.3328 13.0544 21.3328 15.9997C21.3328 18.9453 18.9448 21.3332 15.9993 21.3332Z" fill="url(#paint1_linear_67_11115)"/>
<path d="M26.4612 7.45925C26.4612 8.51956 25.6015 9.37912 24.5412 9.37912C23.4807 9.37912 22.6211 8.5195 22.6211 7.45925C22.6211 6.39862 23.4807 5.53906 24.5412 5.53906C25.6015 5.53906 26.4612 6.39869 26.4612 7.45925H26.4612Z" fill="url(#paint2_linear_67_11115)"/>
</g>
<defs>
<linearGradient id="paint0_linear_67_11115" x1="2.68538" y1="29.3144" x2="29.3146" y2="2.68512" gradientUnits="userSpaceOnUse">
<stop stop-color="#FFD600"/>
<stop offset="0.5" stop-color="#FF0100"/>
<stop offset="1" stop-color="#D800B9"/>
</linearGradient>
<linearGradient id="paint1_linear_67_11115" x1="10.1897" y1="21.8096" x2="21.8091" y2="10.1901" gradientUnits="userSpaceOnUse">
<stop stop-color="#FF6400"/>
<stop offset="0.5" stop-color="#FF0100"/>
<stop offset="1" stop-color="#FD0056"/>
</linearGradient>
<linearGradient id="paint2_linear_67_11115" x1="23.1835" y1="8.81675" x2="25.8988" y2="6.1015" gradientUnits="userSpaceOnUse">
<stop stop-color="#F30072"/>
<stop offset="1" stop-color="#E50097"/>
</linearGradient>
<clipPath id="clip0_67_11115">
<rect width="32" height="32" fill="white"/>
</clipPath>
</defs>
</svg>
