<svg width="240" height="174" viewBox="0 0 240 174" xmlns="http://www.w3.org/2000/svg">
<path  fill="#ffffff0d" d="M224.965 0.121988L227.193 0H228.626C229.155 0 229.682 0.0383241 230.205 0.11467C230.794 0.20073 231.376 0.334831 231.943 0.515632L232.622 0.731928L233.946 1.35068C234.454 1.58842 234.944 1.86548 235.409 2.17933C236.147 2.67635 236.82 3.26254 237.414 3.9246L238.051 4.63555C238.605 5.3637 239.051 6.16767 239.377 7.02281L239.466 7.25678C239.636 7.70421 239.767 8.16573 239.856 8.63601C239.952 9.13961 240 9.6511 240 10.1637V72.5829L239.722 75.2666L239.165 78.1944C238.979 79.5744 238.678 80.9365 238.264 82.266L238.051 82.9519L237.494 85.7576L235.128 92.9549L232.483 98.8103L229.698 103.934L224.408 111.741L218.005 119.304L213.55 123.818L206.589 129.429L200.603 133.455L190.998 138.822L181.392 142.97L171.647 145.898L165.94 147.118L160.65 148.094L155.916 148.703L152.854 149.069L149.791 149.313L104.274 149.195C103.252 149.193 102.234 149.086 101.235 148.875L100.862 148.797C99.7971 148.573 98.7674 148.207 97.8003 147.708C97.1951 147.396 96.6173 147.034 96.0729 146.625L95.8288 146.442C95.2388 145.999 94.6896 145.504 94.1879 144.962L94.1075 144.876C93.4599 144.177 92.9022 143.401 92.4474 142.564L92.1753 142.063C91.8864 141.531 91.6674 140.965 91.5236 140.377C91.39 139.831 91.3225 139.27 91.3225 138.708V138.18C91.3225 136.909 91.5353 135.648 91.9522 134.448L91.9789 134.371C92.1905 133.762 92.4578 133.173 92.7775 132.613C93.1061 132.037 93.4885 131.494 93.9196 130.99L94.0213 130.871C94.633 130.156 95.3257 129.515 96.0854 128.96L96.6125 128.575L96.9591 128.386C98.2072 127.702 99.5424 127.191 100.928 126.868C102.316 126.543 103.736 126.38 105.161 126.38H149.234L152.715 126.136L156.473 125.77L162.181 124.672L169.698 122.476L177.077 119.548L183.619 116.133L190.023 111.863L195.87 106.984L200.325 102.47L203.248 98.5664L206.172 94.1748L208.399 90.0272L210.766 85.0257L212.297 80.6341L213.411 75.7546L213.968 72.2169L214.025 71.9638C214.079 71.7267 214.107 71.4842 214.107 71.241V69.4112V69.0452V68.8013V68.4353V68.4064C214.107 68.355 214.065 68.3133 214.014 68.3133C213.985 68.3133 213.957 68.3269 213.94 68.35L213.729 68.6269C213.702 68.6618 213.673 68.6944 213.641 68.7244L209.93 72.2169L204.501 76.1206L196.288 81.2441L189.327 85.0257L181.253 88.1974L173.735 90.5152L169.142 91.735L163.991 92.589L161.624 93.0769L156.613 93.8088L151.601 94.0528L144.919 94.2968H95.2204L90.6264 94.4188L86.0325 94.9067L81.7169 95.5167L76.9838 96.3706L70.4408 98.3224L65.4292 100.274L60.1392 102.714L55.9629 104.91L51.2297 108.203L47.0534 111.375L42.0418 116.133L38.1439 120.402L34.8028 124.916L32.297 129.063L30.348 133.455L28.5383 137.847L27.2854 141.75L26.7285 144.556L26.0325 148.581L25.8933 151.021V156.999V161.847C25.8933 162.678 25.7999 163.507 25.6148 164.318C25.43 165.128 25.1428 165.911 24.7603 166.649L24.6404 166.88L24.6134 166.939C24.2619 167.709 23.8042 168.426 23.2538 169.069C22.972 169.398 22.667 169.707 22.3412 169.992L21.1601 171.027C20.6042 171.433 20.0155 171.792 19.4 172.1L19.3503 172.125C18.2397 172.612 17.0815 172.982 15.8944 173.23L14.7564 173.467L13.2251 173.589L12.4349 173.546C11.4792 173.493 10.5313 173.344 9.60557 173.101L9.20244 173.018C7.90217 172.75 6.6543 172.272 5.50795 171.602L5.43485 171.559C4.69102 171.125 3.99853 170.608 3.37049 170.018L3.33102 169.981C2.69037 169.379 2.124 168.703 1.644 167.967L1.48117 167.718C0.96097 166.92 0.568889 166.046 0.319178 165.127C0.107331 164.347 0 163.543 0 162.735V159.56V150.187C0 148.874 0.0930407 147.563 0.278422 146.264L1.2529 140.774L2.78422 134.431L4.45476 129.429L5.84687 125.404L8.07425 121.012L11.1369 115.645L14.7564 110.155L17.2622 106.862L19.9072 103.934L23.8051 99.7862L28.8167 95.2727L32.8538 91.979L36.7517 89.0513L42.181 85.6356L47.6102 82.7079L53.3179 80.0242L59.0255 77.8284L65.29 75.8766L71.8329 74.1688L80.0464 72.7049L86.8677 71.973L94.3851 71.485H111.647H124.872H133.086L151.183 71.363L157.169 70.7531L160.928 70.1431L166.357 68.8013L172.483 66.6055L178.747 63.9218L182.923 61.726L188.074 58.3103L193.782 53.9187L197.958 50.0151L201.299 46.3555L203.805 43.1838L206.032 39.7681L207.981 36.1085L210.626 30.863C211.738 28.0214 212.615 25.0935 213.249 22.1086L213.411 21.3479L213.828 18.2982L214.107 15.4925V11.8642C214.107 11.0327 214.2 10.2038 214.385 9.39308L214.803 8.29519L215.081 7.56326C215.266 7.07633 215.496 6.60742 215.767 6.1624L215.931 5.89174C216.292 5.29938 216.703 4.73946 217.161 4.21831L217.865 3.41567L218.283 3.0497L218.701 2.68374C218.886 2.52135 219.084 2.37408 219.293 2.24335L219.954 1.82982L221.206 1.21988L221.763 0.975905C222.409 0.652457 223.1 0.428385 223.813 0.311263L224.965 0.121988Z"/>
</svg>
