<?xml version="1.0" encoding="utf-8"?>
<!-- Generator: Adobe Illustrator 23.0.1, SVG Export Plug-In . SVG Version: 6.00 Build 0)  -->
<svg version="1.1" id="Layer_1" xmlns="http://www.w3.org/2000/svg" xmlns:xlink="http://www.w3.org/1999/xlink" x="0px" y="0px"
	 viewBox="0 0 240 174" style="enable-background:new 0 0 240 174;" xml:space="preserve">
<path fill="#ffffff0d"  class="st0" d="M15,0.1L12.8,0h-1.4c-0.5,0-1.1,0-1.6,0.1C9.2,0.2,8.6,0.3,8.1,0.5L7.4,0.7L6.1,1.4c-0.5,0.2-1,0.5-1.5,0.8
	c-0.7,0.5-1.4,1.1-2,1.7L1.9,4.6C1.4,5.4,0.9,6.2,0.6,7L0.5,7.3C0.4,7.7,0.2,8.2,0.1,8.6C0,9.1,0,9.7,0,10.2v62.4l0.3,2.7l0.6,2.9
	c0.2,1.4,0.5,2.7,0.9,4.1L1.9,83l0.6,2.8L4.9,93l2.6,5.9l2.8,5.1l5.3,7.8l6.4,7.6l4.5,4.5l7,5.6l6,4l9.6,5.4l9.6,4.1l9.7,2.9
	l5.7,1.2l5.3,1l4.7,0.6l3.1,0.4l3.1,0.2l45.5-0.1c1,0,2-0.1,3-0.3l0.4-0.1c1.1-0.2,2.1-0.6,3.1-1.1c0.6-0.3,1.2-0.7,1.7-1.1l0.2-0.2
	c0.6-0.4,1.1-0.9,1.6-1.5l0.1-0.1c0.6-0.7,1.2-1.5,1.7-2.3l0.3-0.5c0.3-0.5,0.5-1.1,0.7-1.7c0.1-0.5,0.2-1.1,0.2-1.7v-0.5
	c0-1.3-0.2-2.5-0.6-3.7l0-0.1c-0.2-0.6-0.5-1.2-0.8-1.8c-0.3-0.6-0.7-1.1-1.1-1.6l-0.1-0.1c-0.6-0.7-1.3-1.4-2.1-1.9l-0.5-0.4
	l-0.3-0.2c-1.2-0.7-2.6-1.2-4-1.5c-1.4-0.3-2.8-0.5-4.2-0.5H90.8l-3.5-0.2l-3.8-0.4l-5.7-1.1l-7.5-2.2l-7.4-2.9l-6.5-3.4l-6.4-4.3
	l-5.8-4.9l-4.5-4.5l-2.9-3.9l-2.9-4.4L31.6,90l-2.4-5l-1.5-4.4l-1.1-4.9L26,72.2L26,72c-0.1-0.2-0.1-0.5-0.1-0.7v-1.8V69v-0.2v-0.4
	v0c0-0.1,0-0.1,0.1-0.1c0,0,0.1,0,0.1,0l0.2,0.3c0,0,0.1,0.1,0.1,0.1l3.7,3.5l5.4,3.9l8.2,5.1l7,3.8l8.1,3.2l7.5,2.3l4.6,1.2
	l5.2,0.9l2.4,0.5l5,0.7l5,0.2l6.7,0.2h49.7l4.6,0.1l4.6,0.5l4.3,0.6l4.7,0.9l6.5,2l5,2l5.3,2.4l4.2,2.2l4.7,3.3l4.2,3.2l5,4.8
	l3.9,4.3l3.3,4.5l2.5,4.1l1.9,4.4l1.8,4.4l1.3,3.9l0.6,2.8l0.7,4l0.1,2.4v6v4.8c0,0.8,0.1,1.7,0.3,2.5c0.2,0.8,0.5,1.6,0.9,2.3
	l0.1,0.2l0,0.1c0.4,0.8,0.8,1.5,1.4,2.1c0.3,0.3,0.6,0.6,0.9,0.9l1.2,1c0.6,0.4,1.1,0.8,1.8,1.1l0,0c1.1,0.5,2.3,0.9,3.5,1.1
	l1.1,0.2l1.5,0.1l0.8,0c1-0.1,1.9-0.2,2.8-0.4l0.4-0.1c1.3-0.3,2.5-0.7,3.7-1.4l0.1,0c0.7-0.4,1.4-1,2.1-1.5l0,0
	c0.6-0.6,1.2-1.3,1.7-2l0.2-0.2c0.5-0.8,0.9-1.7,1.2-2.6c0.2-0.8,0.3-1.6,0.3-2.4v-3.2v-9.4c0-1.3-0.1-2.6-0.3-3.9l-1-5.5l-1.5-6.3
	l-1.7-5l-1.4-4l-2.2-4.4l-3.1-5.4l-3.6-5.5l-2.5-3.3l-2.6-2.9l-3.9-4.1l-5-4.5l-4-3.3l-3.9-2.9l-5.4-3.4l-5.4-2.9l-5.7-2.7l-5.7-2.2
	l-6.3-2l-6.5-1.7l-8.2-1.5l-6.8-0.7l-7.5-0.5h-17.3h-13.2h-8.2l-18.1-0.1l-6-0.6l-3.8-0.6l-5.4-1.3l-6.1-2.2l-6.3-2.7l-4.2-2.2
	l-5.2-3.4l-5.7-4.4L42,50l-3.3-3.7l-2.5-3.2L34,39.8L32,36.1l-2.6-5.2c-1.1-2.8-2-5.8-2.6-8.8l-0.2-0.8l-0.4-3l-0.3-2.8v-3.6
	c0-0.8-0.1-1.7-0.3-2.5l-0.4-1.1l-0.3-0.7c-0.2-0.5-0.4-1-0.7-1.4l-0.2-0.3c-0.4-0.6-0.8-1.2-1.2-1.7l-0.7-0.8L21.7,3l-0.4-0.4
	c-0.2-0.2-0.4-0.3-0.6-0.4L20,1.8l-1.3-0.6L18.2,1c-0.6-0.3-1.3-0.5-2.1-0.7L15,0.1z"/>
</svg>
